<?xml version="1.0" encoding="utf-8"?>
<!-- Generator: Adobe Illustrator 28.0.0, SVG Export Plug-In . SVG Version: 6.00 Build 0)  -->
<svg version="1.1" id="Layer_1" xmlns="http://www.w3.org/2000/svg" xmlns:xlink="http://www.w3.org/1999/xlink" x="0px" y="0px"
	 viewBox="0 0 900 600" style="enable-background:new 0 0 900 600;" xml:space="preserve">
<style type="text/css">
	.st0{opacity:0.7;}
	.st1{clip-path:url(#SVGID_00000117659272534504215430000015236057947632171429_);}
	.st2{fill-rule:evenodd;clip-rule:evenodd;fill:#FFFFFF;}
	.st3{fill:#AADEE9;}
	.st4{fill:#00AEEF;}
	.st5{fill:#433795;}
	.st6{fill:#00A651;}
	.st7{fill:#C52126;}
	.st8{fill:#92298D;}
	.st9{fill:#D6137A;}
	.st10{fill:#F89520;}
	.st11{fill:#2E368F;}
</style>
<g class="st0">
	<g>
		<defs>
			<rect id="SVGID_1_" x="1.6" width="896.9" height="600"/>
		</defs>
		<clipPath id="SVGID_00000025405209180380421120000012387958540631991988_">
			<use xlink:href="#SVGID_1_"  style="overflow:visible;"/>
		</clipPath>
		<g style="clip-path:url(#SVGID_00000025405209180380421120000012387958540631991988_);">
			<rect x="1.6" class="st2" width="1028.8" height="600"/>
			<g>
				<path class="st3" d="M602.3,392.5c-0.9-0.4-1.8-0.8-2.7-1.2c-0.5-0.2-1.1-0.4-1.6-0.5C599.4,391.4,600.8,392,602.3,392.5
					 M1007.9,361.3c0.3-0.3,0.7-0.6,1-0.9c-0.7,0.5-1.4,1-2.2,1.6C1007.1,361.7,1007.5,361.5,1007.9,361.3z M609.5,395.4
					c-1.5-0.7-2.9-1.4-4.4-2.1c-1.2-0.4-2.4-0.8-3.6-1.2c1.4,0.6,2.8,1.3,4.3,1.9C607,394.4,608.3,394.9,609.5,395.4z M613.1,397.1
					c-0.5-0.2-1-0.5-1.5-0.7c-0.7-0.3-1.4-0.5-2.1-0.8C610.8,396.1,612,396.6,613.1,397.1z M1012.6,357.4c0.3-0.3,0.6-0.7,0.9-1
					c-0.7,0.6-1.3,1.2-2,1.8C1011.9,358,1012.3,357.7,1012.6,357.4z M1010.6,359.7c0.5-0.6,1-1.1,1.4-1.6c-0.6,0.4-1.2,0.9-1.8,1.3
					c-0.5,0.5-1.1,1-1.6,1.5C1009.3,360.5,1010,360.1,1010.6,359.7z M1016.8,353.1l0.8-1.1c-0.6,0.7-1.2,1.3-1.8,2L1016.8,353.1z
					 M616.1,397.9c-1.8-0.9-3.6-1.9-5.4-2.8c-1.4-0.5-2.7-0.9-4.1-1.4c1.7,0.8,3.4,1.7,5.1,2.5C613.2,396.8,614.7,397.3,616.1,397.9
					z M622,400.9c-1.5-0.8-3-1.5-4.5-2.3c-1.2-0.5-2.4-0.9-3.7-1.4c1.5,0.7,3.1,1.4,4.6,2.1C619.6,399.9,620.8,400.4,622,400.9z
					 M626.5,403.1c-0.7-0.4-1.5-0.7-2.2-1.1c-0.4-0.2-0.8-0.3-1.2-0.5C624.2,402.1,625.4,402.6,626.5,403.1z M1015.1,355.6
					c0.4-0.6,0.8-1.2,1.2-1.8l-1,1l-0.5,0.5c-0.5,0.5-1,1.1-1.4,1.6L1015.1,355.6z M1013.4,358.2c0.5-0.7,1-1.4,1.4-2.1
					c-0.7,0.5-1.3,1-2,1.5c-0.5,0.6-1.1,1.2-1.6,1.9C1011.9,359,1012.6,358.6,1013.4,358.2z M1020.5,348.3c0.2-0.4,0.4-0.8,0.6-1.2
					c-0.5,0.7-1,1.4-1.5,2.2C1020,349,1020.3,348.7,1020.5,348.3z M1019.1,351.1c0.4-0.7,0.7-1.3,1.1-2c-0.5,0.5-0.9,1.1-1.4,1.6
					c-0.4,0.6-0.8,1.2-1.2,1.8C1018,352,1018.5,351.6,1019.1,351.1z M1017.6,353.9l0.8-1.5l0.4-0.8c-0.6,0.5-1.2,1.1-1.8,1.6l0,0.1
					c-0.4,0.6-0.9,1.3-1.4,2l0.2-0.1L1017.6,353.9z M1016.1,356.6c0.4-0.8,0.9-1.6,1.3-2.4l-1.5,1.1l-0.6,0.5
					c-0.5,0.7-1,1.5-1.5,2.2C1014.6,357.5,1015.3,357.1,1016.1,356.6z M621.9,400c-1.9-1-3.9-2.1-5.8-3.2c-1.4-0.5-2.8-0.9-4.3-1.4
					c1.9,1,3.8,2,5.7,3C619,399,620.5,399.5,621.9,400z M628.6,403.6c-1.8-1-3.6-1.9-5.5-2.9c-1.4-0.5-2.8-1-4.2-1.5
					c1.8,0.9,3.6,1.8,5.5,2.7C625.8,402.4,627.2,403,628.6,403.6z M634.2,406.6c-1.3-0.7-2.6-1.4-4-2.1c-1.2-0.5-2.3-1-3.5-1.4
					c1.4,0.7,2.9,1.4,4.3,2.1C632.1,405.6,633.1,406.1,634.2,406.6z M638.3,408.7c-0.4-0.2-0.9-0.5-1.3-0.7
					c-0.5-0.2-1.1-0.5-1.6-0.7C636.3,407.8,637.3,408.2,638.3,408.7z M1023.7,343.2c0.2-0.4,0.3-0.8,0.5-1.2
					c-0.4,0.7-0.8,1.5-1.2,2.3C1023.2,343.9,1023.5,343.5,1023.7,343.2z M1022.5,346.1c0.3-0.7,0.6-1.4,0.9-2.1
					c-0.4,0.6-0.8,1.1-1.2,1.7c-0.3,0.6-0.7,1.3-1.1,2C1021.6,347.1,1022,346.6,1022.5,346.1z M1021.3,349.1c0.3-0.8,0.7-1.6,1-2.4
					c-0.5,0.6-1,1.2-1.6,1.8c-0.4,0.7-0.8,1.5-1.2,2.2C1020.1,350.1,1020.7,349.6,1021.3,349.1z M1020.1,352.1l0.2-0.5l0.8-2.1
					c-0.6,0.6-1.2,1.1-1.9,1.7l-0.7,1.3l-0.6,1.1C1018.7,353.1,1019.4,352.6,1020.1,352.1z M1018.8,355.1c0.4-0.9,0.7-1.8,1.1-2.7
					c-0.7,0.5-1.4,1-2.2,1.6c-0.4,0.8-0.9,1.6-1.3,2.5l1.7-1L1018.8,355.1z M628,402.2c-2.1-1.2-4.3-2.4-6.4-3.7
					c-1.5-0.5-3-0.9-4.5-1.4c2,1.1,4.1,2.3,6.1,3.4C624.8,401,626.4,401.6,628,402.2z M634.9,406.1c-2-1.1-4-2.2-6-3.4
					c-1.5-0.5-3-1-4.5-1.6c2,1.1,3.9,2.1,5.9,3.1C631.9,404.9,633.4,405.5,634.9,406.1z M641.5,409.8c-1.8-1-3.6-2-5.4-3
					c-1.4-0.5-2.8-1.1-4.2-1.6c1.7,0.9,3.4,1.8,5,2.6C638.5,408.5,640.1,409.1,641.5,409.8z M647.8,413.2c-1.6-0.9-3.1-1.7-4.7-2.5
					c-1-0.4-2.1-0.9-3.1-1.3c1.3,0.6,2.5,1.3,3.8,1.9C645.1,411.9,646.5,412.6,647.8,413.2z M651.3,415.1c-0.3-0.2-0.7-0.4-1-0.5
					c-0.3-0.1-0.7-0.3-1-0.4C650,414.5,650.7,414.8,651.3,415.1z M1026.4,337.7c0.1-0.4,0.3-0.9,0.4-1.3c-0.3,0.8-0.7,1.5-1,2.3
					C1026,338.4,1026.2,338.1,1026.4,337.7z M1025.4,340.8c0.2-0.8,0.5-1.5,0.7-2.2c-0.3,0.6-0.7,1.2-1,1.8
					c-0.3,0.7-0.6,1.4-0.9,2.1C1024.6,341.9,1025,341.3,1025.4,340.8z M1024.5,343.9c0.3-0.9,0.5-1.7,0.8-2.5
					c-0.4,0.6-0.9,1.2-1.4,1.9c-0.3,0.8-0.7,1.6-1,2.4C1023.4,345.1,1024,344.5,1024.5,343.9z M1023.5,347.1
					c0.3-0.9,0.6-1.8,0.8-2.7c-0.5,0.6-1.1,1.2-1.7,1.9c-0.3,0.8-0.7,1.7-1,2.6C1022.3,348.2,1022.9,347.6,1023.5,347.1z
					 M1022.5,350.3c0.3-1,0.6-1.9,0.9-2.9c-0.6,0.6-1.3,1.1-1.9,1.7c-0.3,0.8-0.7,1.6-1,2.4l-0.1,0.2
					C1021.1,351.3,1021.8,350.8,1022.5,350.3z M1021.5,353.5c0.3-1,0.6-1.9,0.9-2.9l0-0.1c-0.7,0.5-1.5,1-2.2,1.6
					c-0.4,0.9-0.7,1.8-1.1,2.7C1019.9,354.5,1020.8,354,1021.5,353.5z M633.6,404.1c-2.2-1.3-4.5-2.7-6.8-4c-1.5-0.5-3-0.9-4.5-1.3
					c2.2,1.3,4.4,2.5,6.6,3.8C630.5,403.1,632.1,403.6,633.6,404.1z M640.8,408.4c-2.1-1.2-4.2-2.5-6.3-3.7c-1.5-0.5-3.1-1-4.6-1.6
					c2.1,1.2,4.2,2.4,6.4,3.6C637.8,407.2,639.3,407.8,640.8,408.4z M647.9,412.5c-2-1.2-4-2.3-6-3.5c-1.5-0.5-2.9-1.1-4.4-1.7
					c1.9,1.1,3.8,2.1,5.7,3.2C644.8,411.1,646.3,411.8,647.9,412.5z M654.4,416.2c-1.7-1-3.4-2-5.1-2.9c-1.4-0.6-2.9-1.2-4.3-1.8
					c1.8,1,3.6,2,5.5,2.9C651.8,415,653.1,415.6,654.4,416.2z M660.9,419.8c-1.5-0.8-3-1.7-4.5-2.5c-1.2-0.5-2.4-1.1-3.6-1.6
					c1.5,0.8,2.9,1.6,4.4,2.3C658.5,418.6,659.7,419.2,660.9,419.8z M664.3,421.7c-0.2-0.1-0.5-0.3-0.8-0.4
					c-0.2-0.1-0.4-0.2-0.6-0.3C663.4,421.2,663.8,421.5,664.3,421.7z M1028.7,332c0.1-0.4,0.2-0.9,0.3-1.3c-0.3,0.8-0.5,1.5-0.8,2.3
					C1028.3,332.7,1028.5,332.4,1028.7,332z M1027.9,335.2c0.2-0.8,0.4-1.5,0.5-2.3c-0.3,0.6-0.6,1.2-0.9,1.8
					c-0.2,0.7-0.5,1.4-0.7,2.2C1027.2,336.4,1027.6,335.8,1027.9,335.2z M1027.2,338.5c0.2-0.9,0.4-1.8,0.6-2.6
					c-0.4,0.6-0.8,1.3-1.2,2c-0.3,0.8-0.5,1.7-0.8,2.5C1026.2,339.7,1026.7,339.1,1027.2,338.5z M1026.4,341.8
					c0.2-1,0.4-1.9,0.6-2.9c-0.5,0.6-1,1.3-1.4,2c-0.3,0.9-0.6,1.8-0.8,2.7C1025.3,343,1025.9,342.4,1026.4,341.8z M1025.7,345.2
					c0.2-1,0.4-2,0.6-3c-0.6,0.6-1.1,1.2-1.7,1.9c-0.3,0.9-0.6,1.9-0.9,2.8C1024.4,346.3,1025.1,345.7,1025.7,345.2z M1025,348.6
					c0.2-1,0.4-2.1,0.7-3.1c-0.6,0.6-1.3,1.1-2,1.7c-0.3,1-0.6,1.9-0.9,2.9C1023.5,349.6,1024.3,349.1,1025,348.6z M1024.3,352
					l0.5-2.2l0.2-1c-0.7,0.5-1.5,1-2.2,1.6l-0.1,0.3c-0.3,0.9-0.5,1.8-0.8,2.7C1022.6,352.9,1023.5,352.5,1024.3,352z M639.3,406.1
					c-2.3-1.4-4.7-2.9-7.1-4.4c-1.5-0.4-3.1-0.9-4.6-1.4c2.3,1.4,4.6,2.8,6.9,4.1C636.2,405,637.8,405.5,639.3,406.1z M646.9,410.7
					c-2.3-1.4-4.5-2.8-6.9-4.2c-1.5-0.5-3.1-1-4.6-1.6c2.2,1.3,4.4,2.6,6.5,3.8C643.6,409.4,645.2,410.1,646.9,410.7z M654.2,415.1
					c-2.1-1.3-4.3-2.6-6.4-3.9c-1.6-0.6-3.2-1.2-4.7-1.8c2.1,1.2,4.2,2.4,6.3,3.6C651,413.7,652.6,414.4,654.2,415.1z M661.4,419.4
					c-2-1.2-4.1-2.4-6.2-3.6c-1.5-0.6-3-1.2-4.6-1.9c1.9,1.1,3.9,2.2,5.8,3.3C658.1,417.9,659.8,418.6,661.4,419.4z M668,423.2
					c-1.8-1-3.5-2-5.3-3.1c-1.4-0.6-2.8-1.3-4.3-1.9c1.7,1,3.4,1.9,5.1,2.8C665.1,421.8,666.6,422.5,668,423.2z M674.1,426.7
					c-1.3-0.7-2.6-1.5-3.9-2.2c-1.2-0.6-2.5-1.2-3.8-1.8c1.4,0.8,2.9,1.5,4.3,2.3C671.9,425.6,673,426.1,674.1,426.7z M677.9,428.8
					c-0.1-0.1-0.3-0.2-0.4-0.2c-0.2-0.1-0.4-0.2-0.7-0.3C677.2,428.5,677.5,428.6,677.9,428.8z M1029.9,329.5
					c0.1-0.8,0.3-1.6,0.4-2.3c-0.2,0.6-0.5,1.2-0.7,1.9c-0.2,0.7-0.4,1.5-0.6,2.2C1029.3,330.6,1029.6,330,1029.9,329.5z
					 M1029.4,332.8c0.1-0.9,0.3-1.8,0.4-2.7c-0.3,0.6-0.7,1.3-1,2c-0.2,0.9-0.4,1.7-0.6,2.6C1028.6,334,1029,333.4,1029.4,332.8z
					 M1028.9,336.2c0.1-1,0.3-2,0.4-3c-0.4,0.6-0.8,1.3-1.3,2c-0.2,0.9-0.4,1.9-0.6,2.8C1027.9,337.5,1028.4,336.8,1028.9,336.2z
					 M1028.4,339.7c0.2-1,0.3-2.1,0.4-3.1c-0.5,0.6-1,1.3-1.5,2c-0.2,1-0.4,2-0.7,3C1027.3,340.9,1027.8,340.3,1028.4,339.7z
					 M1027.9,343.3c0.2-1.1,0.3-2.2,0.4-3.2c-0.6,0.6-1.2,1.2-1.8,1.8c-0.2,1-0.4,2-0.7,3.1C1026.6,344.4,1027.3,343.8,1027.9,343.3
					z M1027.4,346.9c0.2-1.1,0.3-2.2,0.4-3.3c-0.7,0.5-1.3,1.1-2,1.7c-0.2,1-0.4,2.1-0.7,3.1C1026,347.9,1026.7,347.4,1027.4,346.9z
					 M1027,350.5l0.2-1.6l0.2-1.8c-0.7,0.5-1.5,1-2.2,1.6l-0.2,1.2l-0.4,2C1025.3,351.4,1026.2,351,1027,350.5z M644.8,407.8
					c-2.4-1.5-4.9-3.1-7.3-4.7c-1.5-0.4-3-0.8-4.5-1.3c2.4,1.5,4.8,3,7.2,4.4C641.7,406.9,643.2,407.3,644.8,407.8z M652.6,412.7
					c-2.3-1.5-4.7-3-7.1-4.5c-1.5-0.5-3.1-1-4.7-1.5c2.4,1.4,4.7,2.9,7,4.3C649.4,411.6,651,412.2,652.6,412.7z M660.2,417.5
					c-2.3-1.4-4.5-2.8-6.8-4.2c-1.5-0.6-3.1-1.1-4.7-1.7c2.2,1.4,4.5,2.7,6.7,4C657,416.2,658.6,416.8,660.2,417.5z M667.5,422
					c-2.1-1.3-4.2-2.6-6.4-3.9c-1.6-0.6-3.1-1.2-4.7-1.9c2.1,1.3,4.3,2.5,6.4,3.8C664.4,420.6,666,421.3,667.5,422z M674.8,426.4
					c-2-1.2-4-2.4-6.1-3.6c-1.5-0.6-3-1.3-4.6-2c2.1,1.2,4.1,2.4,6.1,3.5C671.8,425,673.3,425.7,674.8,426.4z M681.7,430.4
					c-1.8-1.1-3.6-2.1-5.4-3.2c-1.3-0.6-2.7-1.2-4-1.8c1.8,1,3.5,2,5.3,3C679,429.1,680.3,429.8,681.7,430.4z M687.8,434
					c-1.3-0.8-2.7-1.6-4-2.4c-1.1-0.5-2.2-1.1-3.3-1.6c1.3,0.8,2.7,1.5,4,2.3C685.7,432.9,686.8,433.5,687.8,434z M691.4,436.1
					c-0.1-0.1-0.2-0.1-0.3-0.2l-0.3-0.1C691,435.9,691.2,436,691.4,436.1z M1029.9,345.2c0.1-1.2,0.2-2.4,0.2-3.5
					c-0.7,0.5-1.3,1.1-2,1.7c-0.2,1.1-0.3,2.2-0.4,3.4C1028.4,346.2,1029.2,345.7,1029.9,345.2z M1029.7,349l0.1-1l0.2-2.5
					c-0.7,0.5-1.5,1-2.3,1.5l-0.3,2l-0.2,1.5C1028,349.9,1028.9,349.5,1029.7,349z M650.4,409.6c-2.5-1.7-5.1-3.3-7.7-5
					c-1.5-0.4-3.1-0.9-4.6-1.3c2.5,1.6,5,3.2,7.4,4.8C647.1,408.6,648.8,409.1,650.4,409.6z M658.3,414.8c-2.4-1.6-4.9-3.2-7.4-4.8
					c-1.6-0.5-3.2-1-4.7-1.5c2.4,1.5,4.8,3,7.2,4.5C655,413.6,656.7,414.2,658.3,414.8z M666.2,419.9c-2.4-1.5-4.8-3-7.2-4.6
					c-1.6-0.6-3.2-1.1-4.8-1.7c2.4,1.5,4.7,2.9,7,4.3C662.9,418.5,664.6,419.2,666.2,419.9z M673.9,424.7c-2.3-1.4-4.6-2.9-6.9-4.4
					c-1.6-0.6-3.2-1.3-4.8-1.9c2.2,1.4,4.4,2.7,6.6,4C670.5,423.2,672.2,424,673.9,424.7z M681.4,429.3c-2.1-1.3-4.3-2.6-6.4-4
					c-1.6-0.7-3.3-1.4-4.9-2.1c2.1,1.3,4.2,2.6,6.3,3.8C678,427.8,679.7,428.6,681.4,429.3z M688.7,433.9c-2-1.2-4-2.4-6-3.7
					c-1.6-0.7-3.3-1.5-4.9-2.2c2,1.2,4,2.4,6,3.5C685.5,432.3,687.1,433.1,688.7,433.9z M695.6,438c-1.8-1.1-3.6-2.1-5.4-3.2
					c-1.4-0.7-2.8-1.3-4.2-2c1.7,1,3.4,2,5.1,3C692.6,436.5,694.1,437.3,695.6,438z M701.5,441.5c-1.2-0.7-2.4-1.4-3.5-2.1
					c-1.1-0.6-2.3-1.1-3.4-1.7c1.3,0.8,2.7,1.5,4,2.3C699.5,440.5,700.5,441,701.5,441.5z M705.2,443.7L705.2,443.7L705.2,443.7
					L705.2,443.7z M655.7,411.2c-2.6-1.8-5.2-3.5-7.9-5.3c-1.5-0.4-3-0.8-4.5-1.2c2.6,1.7,5.2,3.4,7.7,5.1
					C652.6,410.3,654.1,410.8,655.7,411.2z M663.9,416.7c-2.5-1.7-5.1-3.4-7.7-5.1c-1.5-0.5-3.1-0.9-4.6-1.4c2.5,1.6,5,3.3,7.5,4.9
					C660.7,415.6,662.3,416.1,663.9,416.7z M671.9,422c-2.4-1.6-4.9-3.2-7.4-4.9c-1.6-0.5-3.1-1-4.7-1.6c2.4,1.6,4.9,3.1,7.3,4.7
					C668.7,420.8,670.3,421.4,671.9,422z M679.8,427.1c-2.4-1.5-4.8-3.1-7.2-4.6c-1.6-0.6-3.2-1.2-4.8-1.8c2.4,1.5,4.8,3,7.2,4.5
					C676.7,425.8,678.2,426.5,679.8,427.1z M687.7,432.1c-2.3-1.5-4.6-2.9-6.9-4.4c-1.6-0.6-3.1-1.2-4.7-1.9
					c2.3,1.4,4.5,2.8,6.8,4.2C684.4,430.7,686,431.4,687.7,432.1z M695.2,436.9c-2.1-1.3-4.3-2.7-6.5-4.1c-1.6-0.7-3.1-1.4-4.7-2
					c2.1,1.3,4.2,2.6,6.3,3.8C691.9,435.4,693.5,436.1,695.2,436.9z M702.5,441.4c-2-1.2-4-2.5-6-3.7c-1.6-0.7-3.1-1.5-4.7-2.2
					c2.1,1.2,4.1,2.5,6.2,3.7C699.5,440,701,440.7,702.5,441.4z M709.6,445.8c-1.8-1.1-3.6-2.2-5.5-3.3c-1.4-0.7-2.8-1.4-4.2-2
					c1.8,1,3.5,2.1,5.2,3.1C706.7,444.3,708.2,445,709.6,445.8z M715.4,449.3c-1.2-0.7-2.4-1.5-3.6-2.2c-1-0.5-2-1-3-1.5
					c1.1,0.6,2.2,1.3,3.3,2C713.2,448.1,714.3,448.7,715.4,449.3z M661,412.8c-2.7-1.8-5.4-3.7-8.1-5.6c-1.5-0.4-3.1-0.8-4.6-1.2
					c2.7,1.8,5.3,3.6,8,5.4C657.9,411.9,659.5,412.4,661,412.8z M669.5,418.6c-2.6-1.8-5.3-3.6-8-5.4c-1.6-0.5-3.1-1-4.7-1.4
					c2.6,1.7,5.2,3.5,7.8,5.1C666.2,417.5,667.9,418.1,669.5,418.6z M677.8,424.2c-2.5-1.7-5.1-3.4-7.7-5.2
					c-1.6-0.5-3.2-1.1-4.8-1.6c2.5,1.7,5,3.3,7.5,4.9C674.4,422.9,676.1,423.6,677.8,424.2z M685.8,429.5c-2.4-1.6-4.9-3.2-7.3-4.9
					c-1.6-0.6-3.3-1.2-5-1.9c2.4,1.6,4.9,3.2,7.3,4.7C682.5,428.2,684.2,428.9,685.8,429.5z M693.9,434.8c-2.4-1.6-4.8-3.1-7.3-4.8
					c-1.7-0.6-3.3-1.4-5-2c2.4,1.5,4.8,3,7.1,4.5C690.5,433.4,692.2,434.1,693.9,434.8z M701.7,439.9c-2.3-1.5-4.6-2.9-6.9-4.4
					c-1.6-0.7-3.3-1.4-5-2.1c2.3,1.4,4.5,2.9,6.8,4.3C698.3,438.3,700,439.1,701.7,439.9z M709.3,444.7c-2.1-1.4-4.3-2.8-6.5-4.2
					c-1.6-0.7-3.2-1.4-4.8-2.2c2.1,1.3,4.2,2.6,6.2,3.9C705.9,443.1,707.6,443.9,709.3,444.7z M716.7,449.4c-2-1.3-4-2.5-6-3.8
					c-1.5-0.7-3.1-1.5-4.7-2.2c2,1.2,4,2.4,5.9,3.6C713.5,447.8,715.1,448.6,716.7,449.4z M723.6,453.7c-1.7-1.1-3.4-2.1-5.2-3.2
					c-1.4-0.7-2.9-1.5-4.4-2.2c1.8,1.1,3.7,2.2,5.5,3.3C721,452.3,722.3,453,723.6,453.7z M729.6,457.4c-1.2-0.7-2.4-1.5-3.6-2.2
					c-1-0.5-2.1-1.1-3.1-1.6c1.1,0.7,2.2,1.3,3.3,2C727.3,456.1,728.5,456.8,729.6,457.4z M666.2,414.3c-2.7-1.9-5.5-3.9-8.3-5.8
					c-1.5-0.4-3-0.7-4.5-1.1c2.7,1.9,5.5,3.8,8.2,5.6C663.2,413.5,664.7,413.9,666.2,414.3z M674.8,420.3c-2.7-1.9-5.4-3.7-8.1-5.6
					c-1.5-0.4-3-0.8-4.6-1.3c2.7,1.9,5.4,3.6,8,5.5C671.7,419.3,673.3,419.8,674.8,420.3z M683.3,426.1c-2.6-1.8-5.3-3.6-7.9-5.5
					c-1.6-0.5-3.1-1-4.7-1.5c2.6,1.8,5.2,3.5,7.8,5.3C680.2,425,681.7,425.6,683.3,426.1z M691.6,431.8c-2.5-1.7-5.1-3.5-7.7-5.2
					c-1.6-0.6-3.2-1.1-4.8-1.7c2.5,1.7,5,3.4,7.5,5C688.4,430.5,690,431.2,691.6,431.8z M699.8,437.3c-2.5-1.6-5-3.3-7.5-5
					c-1.6-0.6-3.2-1.2-4.8-1.8c2.5,1.6,4.9,3.2,7.3,4.8C696.5,435.9,698.2,436.6,699.8,437.3z M708,442.7c-2.4-1.6-4.9-3.2-7.3-4.8
					c-1.6-0.7-3.2-1.3-4.9-2c2.4,1.5,4.7,3.1,7.1,4.6C704.6,441.2,706.3,441.9,708,442.7z M715.8,447.8c-2.3-1.5-4.5-3-6.8-4.5
					c-1.7-0.7-3.3-1.5-5-2.2c2.3,1.5,4.5,2.9,6.8,4.3C712.4,446.2,714.1,447,715.8,447.8z M723.3,452.7c-2.1-1.3-4.2-2.7-6.3-4.1
					c-1.6-0.8-3.3-1.6-5-2.4c2.2,1.4,4.3,2.7,6.5,4.1C720.2,451.1,721.8,451.9,723.3,452.7z M731,457.6c-2-1.3-4.1-2.6-6.2-3.9
					c-1.5-0.8-3.1-1.5-4.6-2.3c2,1.2,4,2.4,5.9,3.7C727.7,455.9,729.4,456.7,731,457.6z M737.8,461.9c-1.7-1.1-3.4-2.1-5.2-3.3
					c-1.4-0.7-2.8-1.4-4.2-2.1c1.8,1.1,3.6,2.2,5.3,3.2C735.2,460.5,736.5,461.2,737.8,461.9z M744,465.7c-1.2-0.7-2.4-1.5-3.6-2.2
					c-1.1-0.6-2.1-1.1-3.2-1.7c1.1,0.7,2.2,1.3,3.3,2C741.7,464.4,742.8,465.1,744,465.7z M671.5,415.8c-2.8-2-5.7-4-8.5-6.1
					c-1.5-0.4-3-0.7-4.5-1.1c2.8,2,5.6,4,8.3,5.9C668.3,414.9,669.9,415.4,671.5,415.8z M680.2,422c-2.7-1.9-5.5-3.9-8.3-5.9
					c-1.5-0.4-3.1-0.9-4.7-1.3c2.8,1.9,5.5,3.8,8.2,5.7C677,421,678.7,421.5,680.2,422z M688.9,428.1c-2.7-1.9-5.4-3.8-8.2-5.7
					c-1.6-0.5-3.2-1-4.8-1.5c2.7,1.9,5.4,3.7,8,5.5C685.7,426.9,687.3,427.5,688.9,428.1z M697.4,434c-2.6-1.8-5.2-3.6-7.9-5.5
					c-1.6-0.5-3.3-1.1-4.9-1.7c2.6,1.8,5.2,3.5,7.8,5.3C694.1,432.7,695.8,433.4,697.4,434z M705.8,439.8c-2.5-1.7-5.1-3.5-7.7-5.3
					c-1.6-0.6-3.3-1.3-5-1.9c2.5,1.7,5.1,3.4,7.6,5.1C702.4,438.4,704.1,439.1,705.8,439.8z M714,445.3c-2.5-1.7-5-3.4-7.5-5
					c-1.7-0.7-3.3-1.4-5-2c2.5,1.7,5,3.3,7.5,4.9C710.7,443.9,712.4,444.6,714,445.3z M722.1,450.8c-2.4-1.6-4.8-3.2-7.3-4.9
					c-1.6-0.7-3.2-1.4-4.9-2.1c2.4,1.6,4.8,3.1,7.1,4.6C718.8,449.2,720.5,450,722.1,450.8z M730.1,456c-2.3-1.5-4.6-3-6.9-4.6
					c-1.6-0.7-3.2-1.5-4.9-2.2c2.2,1.4,4.4,2.9,6.6,4.3C726.6,454.3,728.3,455.2,730.1,456z M737.7,461c-2.1-1.4-4.3-2.8-6.5-4.2
					c-1.6-0.8-3.2-1.5-4.9-2.4c2.1,1.4,4.2,2.7,6.3,4C734.4,459.3,736.1,460.2,737.7,461z M745.2,465.9c-2-1.3-4-2.6-6-3.9
					c-1.6-0.8-3.2-1.6-4.8-2.4c2,1.3,4,2.5,6.1,3.8C742.1,464.2,743.7,465,745.2,465.9z M752.2,470.3c-1.7-1.1-3.4-2.2-5.1-3.2
					c-1.3-0.7-2.7-1.4-4-2.1c1.7,1.1,3.4,2.1,5.1,3.1C749.5,468.8,750.8,469.5,752.2,470.3z M758.5,474.2c-1.2-0.7-2.4-1.5-3.6-2.2
					c-1-0.6-2.1-1.2-3.2-1.8c1.1,0.7,2.2,1.4,3.3,2C756.2,472.9,757.3,473.6,758.5,474.2z M676.6,417.1c-2.9-2.1-5.8-4.2-8.7-6.3
					c-1.5-0.3-3-0.6-4.4-1c2.9,2.1,5.7,4.1,8.6,6.1C673.5,416.3,675,416.7,676.6,417.1z M685.5,423.6c-2.8-2-5.7-4.1-8.5-6.1
					c-1.5-0.4-3-0.8-4.5-1.2c2.8,2,5.6,4,8.3,5.9C682.4,422.7,684,423.1,685.5,423.6z M694.3,429.9c-2.8-2-5.5-4-8.3-6
					c-1.5-0.5-3.1-0.9-4.6-1.4c2.8,2,5.5,3.9,8.2,5.8C691.2,428.9,692.8,429.4,694.3,429.9z M703.1,436c-2.7-1.9-5.4-3.8-8.2-5.8
					c-1.6-0.5-3.1-1-4.7-1.5c2.7,1.9,5.3,3.7,8,5.5C699.8,434.9,701.5,435.5,703.1,436z M711.6,442c-2.6-1.8-5.3-3.7-8-5.6
					c-1.6-0.6-3.2-1.1-4.8-1.7c2.6,1.8,5.2,3.6,7.8,5.3C708.3,440.8,710,441.4,711.6,442z M720.1,447.9c-2.6-1.8-5.2-3.6-7.8-5.4
					c-1.6-0.6-3.3-1.3-5-2c2.5,1.7,5.1,3.5,7.6,5.1C716.7,446.5,718.4,447.2,720.1,447.9z M728.4,453.6c-2.5-1.7-5-3.4-7.6-5.2
					c-1.7-0.7-3.4-1.4-5-2.1c2.5,1.7,5,3.3,7.4,5C725,452,726.7,452.8,728.4,453.6z M736.5,459.1c-2.4-1.6-4.8-3.2-7.2-4.9
					c-1.7-0.7-3.4-1.5-5.1-2.3c2.4,1.6,4.8,3.1,7.1,4.7C733.1,457.4,734.8,458.3,736.5,459.1z M744.3,464.3c-2.2-1.5-4.5-3-6.7-4.5
					c-1.7-0.8-3.4-1.6-5.1-2.4c2.3,1.5,4.5,3,6.8,4.4C741,462.7,742.7,463.5,744.3,464.3z M752.3,469.5c-2.2-1.4-4.4-2.9-6.7-4.4
					c-1.6-0.8-3.2-1.6-4.8-2.4c2.1,1.4,4.2,2.7,6.3,4.1C748.8,467.7,750.6,468.6,752.3,469.5z M759.7,474.4c-2-1.3-4-2.6-6-3.9
					c-1.6-0.8-3.2-1.6-4.8-2.5c2,1.3,4,2.6,6,3.8C756.6,472.7,758.1,473.5,759.7,474.4z M766.5,478.8c-1.6-1-3.3-2.1-5-3.2
					c-1.3-0.7-2.7-1.4-4-2.2c1.7,1,3.3,2.1,5,3.1C763.9,477.3,765.2,478,766.5,478.8z M773,482.9c-1.2-0.8-2.4-1.5-3.6-2.3
					c-1-0.6-2-1.1-3.1-1.7c1.1,0.7,2.3,1.4,3.4,2.1C770.8,481.6,771.9,482.2,773,482.9z M681.7,418.4c-3-2.2-5.9-4.4-8.9-6.6
					c-1.5-0.3-3-0.6-4.4-1c2.9,2.1,5.8,4.3,8.7,6.4C678.6,417.6,680.2,418,681.7,418.4z M690.8,425.1c-2.9-2.1-5.8-4.2-8.7-6.4
					c-1.5-0.4-3-0.8-4.6-1.2c2.9,2.1,5.7,4.2,8.5,6.2C687.6,424.2,689.2,424.7,690.8,425.1z M699.8,431.6c-2.8-2-5.7-4.1-8.5-6.2
					c-1.6-0.4-3.1-0.9-4.7-1.4c2.8,2,5.6,4,8.4,6C696.6,430.6,698.2,431.1,699.8,431.6z M708.6,438c-2.8-2-5.5-4-8.4-6
					c-1.6-0.5-3.2-1-4.8-1.6c2.8,2,5.5,3.9,8.2,5.8C705.4,436.9,707,437.5,708.6,438z M717.4,444.3c-2.7-1.9-5.4-3.9-8.2-5.8
					c-1.6-0.6-3.2-1.1-4.9-1.7c2.7,1.9,5.4,3.8,8.1,5.6C714.1,443,715.8,443.6,717.4,444.3z M725.9,450.3c-2.6-1.8-5.3-3.7-7.9-5.6
					c-1.6-0.6-3.3-1.2-4.9-1.9c2.6,1.8,5.2,3.6,7.8,5.4C722.6,449,724.3,449.6,725.9,450.3z M734.5,456.2c-2.6-1.8-5.2-3.6-7.8-5.4
					c-1.7-0.7-3.3-1.4-5-2c2.6,1.8,5.1,3.5,7.7,5.2C731.1,454.8,732.8,455.5,734.5,456.2z M742.8,462c-2.5-1.7-5-3.4-7.5-5.2
					c-1.7-0.7-3.3-1.5-5-2.2c2.5,1.7,5,3.4,7.5,5C739.4,460.4,741.1,461.2,742.8,462z M750.9,467.5c-2.4-1.6-4.8-3.3-7.2-4.9
					c-1.7-0.8-3.3-1.5-5-2.3c2.3,1.6,4.7,3.1,7,4.7C747.4,465.8,749.2,466.7,750.9,467.5z M758.9,472.9c-2.3-1.5-4.6-3.1-6.9-4.6
					c-1.7-0.8-3.3-1.6-5-2.4c2.3,1.5,4.6,3,6.8,4.5C755.5,471.2,757.2,472,758.9,472.9z M766.8,478.1c-2.2-1.5-4.4-2.9-6.7-4.4
					c-1.6-0.8-3.3-1.7-4.9-2.5c2.2,1.4,4.3,2.8,6.5,4.2C763.4,476.3,765.1,477.3,766.8,478.1z M774.1,483c-2-1.3-3.9-2.6-5.9-3.9
					c-1.6-0.8-3.1-1.6-4.7-2.5c2,1.3,4,2.5,6,3.8C771.1,481.3,772.6,482.1,774.1,483z M781.2,487.5c-1.7-1.1-3.3-2.2-5-3.3
					c-1.3-0.7-2.7-1.4-4-2.2c1.6,1,3.2,2.1,4.8,3.1C778.4,486,779.8,486.8,781.2,487.5z M787.5,491.6c-1.2-0.8-2.4-1.5-3.6-2.3
					c-1-0.5-2-1.1-2.9-1.7c1.2,0.7,2.4,1.5,3.6,2.2C785.6,490.5,786.5,491,787.5,491.6z M686.7,419.6c-3-2.2-6-4.5-9-6.8
					c-1.5-0.3-2.9-0.6-4.4-0.9c3,2.2,6,4.4,8.9,6.6C683.7,418.9,685.2,419.3,686.7,419.6z M695.9,426.5c-2.9-2.2-5.9-4.4-8.9-6.6
					c-1.5-0.4-3-0.7-4.5-1.1c2.9,2.2,5.8,4.3,8.8,6.4C692.9,425.7,694.4,426.1,695.9,426.5z M705.1,433.3c-2.9-2.1-5.8-4.3-8.7-6.4
					c-1.5-0.4-3-0.8-4.6-1.2c2.9,2.1,5.7,4.2,8.5,6.2C701.9,432.3,703.5,432.8,705.1,433.3z M714.1,439.9c-2.8-2.1-5.7-4.1-8.6-6.3
					c-1.6-0.5-3.1-0.9-4.7-1.4c2.8,2,5.6,4,8.4,6C710.9,438.8,712.5,439.4,714.1,439.9z M723,446.4c-2.8-2-5.6-4-8.4-6.1
					c-1.6-0.5-3.2-1.1-4.8-1.6c2.8,2,5.5,3.9,8.2,5.9C719.8,445.2,721.4,445.8,723,446.4z M731.8,452.7c-2.7-1.9-5.4-3.9-8.2-5.9
					c-1.6-0.6-3.3-1.2-4.9-1.8c2.7,1.9,5.4,3.8,8,5.7C728.4,451.3,730.1,452,731.8,452.7z M740.4,458.8c-2.6-1.9-5.3-3.8-8-5.7
					c-1.7-0.6-3.3-1.3-5-2c2.6,1.9,5.3,3.7,7.9,5.5C737,457.4,738.7,458.1,740.4,458.8z M749,464.8c-2.6-1.8-5.2-3.6-7.8-5.5
					c-1.7-0.7-3.3-1.4-5-2.1c2.6,1.8,5.1,3.5,7.6,5.2C745.5,463.2,747.2,464,749,464.8z M757.3,470.6c-2.5-1.7-5-3.5-7.5-5.2
					c-1.7-0.8-3.4-1.5-5.1-2.3c2.5,1.7,4.9,3.4,7.4,5C753.8,468.9,755.6,469.8,757.3,470.6z M765.4,476.1c-2.3-1.6-4.7-3.2-7.1-4.9
					c-1.7-0.8-3.4-1.6-5.2-2.5c2.4,1.6,4.7,3.2,7.1,4.8C762,474.5,763.7,475.3,765.4,476.1z M773.5,481.6c-2.3-1.6-4.7-3.1-7-4.7
					c-1.7-0.8-3.3-1.6-5-2.4c2.3,1.5,4.5,3,6.8,4.5C770.1,479.9,771.8,480.8,773.5,481.6z M781.3,486.9c-2.2-1.4-4.3-2.9-6.5-4.4
					c-1.7-0.9-3.3-1.7-5-2.6c2.2,1.4,4.3,2.8,6.4,4.2C777.9,485.1,779.7,486,781.3,486.9z M788.7,491.8c-1.9-1.2-3.8-2.5-5.8-3.8
					c-1.5-0.8-3.1-1.6-4.7-2.5c1.9,1.3,3.9,2.5,5.8,3.7C785.6,490,787.1,490.9,788.7,491.8z M795.9,496.5c-1.7-1.1-3.4-2.2-5.2-3.4
					c-1.3-0.7-2.6-1.4-3.9-2.2c1.7,1.1,3.4,2.2,5,3.2C793.2,495,794.5,495.7,795.9,496.5z M802,500.5c-1.2-0.8-2.3-1.5-3.5-2.3
					c-1-0.5-2-1.1-2.9-1.7c1.3,0.8,2.6,1.6,3.9,2.4C800.4,499.5,801.2,500,802,500.5z M691.6,420.8c-3.1-2.3-6.1-4.6-9.2-7
					c-1.5-0.3-2.9-0.6-4.4-0.9c3.1,2.3,6.1,4.6,9.1,6.8C688.6,420.1,690.1,420.5,691.6,420.8z M701.1,427.9c-3-2.3-6-4.5-9-6.8
					c-1.5-0.3-3-0.7-4.5-1.1c3,2.2,6,4.5,8.9,6.6C698,427.1,699.5,427.5,701.1,427.9z M710.3,434.9c-2.9-2.2-5.9-4.4-8.8-6.6
					c-1.5-0.4-3.1-0.8-4.6-1.2c2.9,2.2,5.8,4.3,8.7,6.5C707.2,434,708.8,434.4,710.3,434.9z M719.5,441.7c-2.9-2.1-5.8-4.3-8.7-6.5
					c-1.6-0.5-3.1-0.9-4.7-1.4c2.9,2.1,5.8,4.2,8.6,6.3C716.3,440.7,717.9,441.2,719.5,441.7z M728.6,448.4
					c-2.8-2.1-5.7-4.2-8.6-6.3c-1.6-0.5-3.2-1-4.8-1.6c2.8,2.1,5.7,4.1,8.5,6.1C725.3,447.2,727,447.8,728.6,448.4z M737.5,454.9
					c-2.8-2-5.6-4-8.4-6.1c-1.6-0.6-3.2-1.1-4.8-1.7c2.8,2,5.5,4,8.2,5.9C734.2,453.6,735.9,454.3,737.5,454.9z M746.3,461.3
					c-2.7-1.9-5.4-3.9-8.2-5.9c-1.7-0.6-3.3-1.3-5-1.9c2.7,1.9,5.4,3.8,8,5.7C742.9,459.8,744.7,460.6,746.3,461.3z M755,467.4
					c-2.7-1.9-5.3-3.8-8-5.7c-1.7-0.7-3.4-1.4-5.1-2.1c2.7,1.9,5.3,3.7,7.9,5.5C751.6,465.9,753.3,466.7,755,467.4z M763.5,473.4
					c-2.5-1.8-5.1-3.6-7.7-5.5c-1.7-0.7-3.4-1.5-5.1-2.2c2.6,1.8,5.2,3.6,7.7,5.3C760.1,471.9,761.8,472.7,763.5,473.4z
					 M771.9,479.3c-2.5-1.7-5-3.5-7.5-5.3c-1.7-0.8-3.3-1.5-5-2.3c2.4,1.7,4.9,3.4,7.2,5C768.3,477.6,770.1,478.5,771.9,479.3z
					 M780,485c-2.4-1.6-4.8-3.3-7.2-5c-1.7-0.8-3.4-1.7-5.1-2.5c2.4,1.6,4.8,3.3,7.2,4.9C776.6,483.2,778.3,484.1,780,485z
					 M788.1,490.5c-2.3-1.6-4.6-3.1-7-4.8c-1.7-0.8-3.3-1.6-5-2.5c2.3,1.5,4.5,3,6.8,4.5C784.7,488.7,786.4,489.6,788.1,490.5z
					 M795.9,495.8c-2.1-1.4-4.3-2.9-6.4-4.3c-1.7-0.9-3.3-1.8-5-2.7c2.1,1.4,4.2,2.8,6.3,4.2C792.5,493.9,794.2,494.9,795.9,495.8z
					 M803.5,500.8c-2-1.3-4-2.6-5.9-4c-1.5-0.8-3.1-1.7-4.6-2.5c1.9,1.2,3.8,2.5,5.7,3.7C800.2,499,801.9,499.9,803.5,500.8z
					 M810.6,505.5c-1.7-1.1-3.5-2.3-5.2-3.4c-1.3-0.7-2.6-1.4-3.9-2.2c1.7,1.1,3.4,2.2,5.1,3.3C808,504,809.3,504.7,810.6,505.5z
					 M816.6,509.4c-1.1-0.7-2.2-1.4-3.3-2.1c-1-0.6-2.1-1.2-3.1-1.8c1.5,0.9,2.9,1.8,4.3,2.7C815.2,508.6,815.9,509,816.6,509.4z
					 M696.5,421.9c-3.1-2.4-6.2-4.8-9.3-7.2c-1.5-0.3-2.9-0.6-4.4-0.8c3.1,2.4,6.2,4.7,9.3,7C693.6,421.3,695.1,421.6,696.5,421.9z
					 M706.1,429.2c-3-2.3-6.1-4.7-9.2-7c-1.5-0.3-3-0.6-4.4-1c3,2.3,6.1,4.6,9.1,6.9C703.1,428.5,704.6,428.9,706.1,429.2z
					 M715.5,436.4c-3-2.3-6-4.6-9-6.9c-1.5-0.4-3-0.8-4.5-1.2c3,2.2,6,4.5,8.9,6.7C712.4,435.5,714,436,715.5,436.4z M724.9,443.4
					c-3-2.2-5.9-4.4-8.9-6.7c-1.5-0.4-3.1-0.9-4.6-1.3c2.9,2.2,5.8,4.4,8.8,6.5C721.7,442.4,723.3,443,724.9,443.4z M734.1,450.3
					c-2.9-2.1-5.8-4.3-8.7-6.5c-1.6-0.5-3.2-1-4.8-1.5c2.9,2.1,5.8,4.2,8.6,6.3C730.8,449.2,732.5,449.8,734.1,450.3z M743.1,457
					c-2.8-2.1-5.7-4.2-8.5-6.3c-1.6-0.5-3.2-1.1-4.9-1.7c2.8,2.1,5.7,4.1,8.5,6.2C739.9,455.8,741.5,456.4,743.1,457z M752.1,463.6
					c-2.8-2-5.6-4.1-8.4-6.1c-1.6-0.6-3.2-1.2-4.9-1.8c2.8,2,5.5,4,8.2,6C748.8,462.3,750.4,462.9,752.1,463.6z M760.9,470
					c-2.7-2-5.5-3.9-8.2-6c-1.6-0.6-3.3-1.3-5-2c2.7,2,5.4,3.9,8.1,5.8C757.6,468.5,759.2,469.3,760.9,470z M769.6,476.2
					c-2.7-1.9-5.3-3.8-8-5.8c-1.7-0.7-3.3-1.4-5-2.1c2.6,1.9,5.2,3.7,7.8,5.5C766.2,474.7,767.9,475.5,769.6,476.2z M778.1,482.3
					c-2.5-1.8-5.1-3.6-7.7-5.5c-1.7-0.8-3.4-1.5-5.1-2.3c2.6,1.8,5.1,3.6,7.6,5.3C774.7,480.6,776.4,481.5,778.1,482.3z
					 M786.5,488.2c-2.5-1.8-5-3.5-7.5-5.3c-1.7-0.8-3.4-1.6-5.1-2.4c2.5,1.7,4.9,3.4,7.4,5.1C783,486.5,784.8,487.3,786.5,488.2z
					 M794.7,493.9c-2.4-1.7-4.8-3.3-7.2-5c-1.7-0.8-3.4-1.7-5.1-2.5c2.4,1.7,4.8,3.3,7.3,4.9C791.3,492.2,793,493,794.7,493.9z
					 M802.8,499.4c-2.3-1.5-4.6-3.1-6.9-4.7c-1.7-0.9-3.3-1.7-5-2.6c2.3,1.5,4.5,3,6.7,4.5C799.3,497.6,801.1,498.5,802.8,499.4z
					 M810.7,504.8c-2.2-1.5-4.3-2.9-6.5-4.4c-1.7-0.9-3.3-1.8-5-2.7c2.1,1.4,4.2,2.8,6.3,4.2C807.2,502.9,809,503.9,810.7,504.8z
					 M818.3,509.9c-2-1.4-4-2.7-6.1-4.1c-1.5-0.9-3.1-1.7-4.7-2.6c2,1.3,3.9,2.6,5.9,3.9C815.1,508.1,816.7,509,818.3,509.9z
					 M825.3,514.6c-1.7-1.1-3.4-2.2-5.1-3.4c-1.4-0.8-2.7-1.5-4.1-2.3c1.7,1.1,3.4,2.2,5.1,3.3C822.6,513,824,513.8,825.3,514.6z
					 M831.7,518.8c-1.2-0.8-2.4-1.6-3.6-2.3c-0.9-0.5-1.8-1.1-2.8-1.6c1.1,0.7,2.2,1.4,3.3,2.1C829.7,517.5,830.7,518.2,831.7,518.8
					z M701.4,423c-3.1-2.4-6.3-4.9-9.5-7.4c-1.4-0.2-2.8-0.5-4.3-0.8c3.2,2.4,6.3,4.8,9.4,7.2C698.4,422.3,699.9,422.6,701.4,423z
					 M711.1,430.5c-3.1-2.4-6.2-4.8-9.3-7.2c-1.5-0.3-2.9-0.6-4.4-0.9c3.1,2.4,6.2,4.7,9.2,7.1C708.1,429.7,709.6,430.1,711.1,430.5
					z M720.6,437.8c-3-2.3-6.1-4.7-9.2-7.1c-1.5-0.4-3-0.7-4.5-1.1c3,2.3,6.1,4.6,9.1,6.9C717.6,437,719.1,437.4,720.6,437.8z
					 M730.1,445c-3-2.3-6-4.6-9-6.9c-1.5-0.4-3-0.8-4.6-1.3c3,2.3,6,4.5,8.9,6.7C727,444.1,728.5,444.6,730.1,445z M739.5,452.1
					c-3-2.2-5.9-4.5-8.9-6.8c-1.5-0.5-3.1-0.9-4.7-1.4c3,2.2,5.9,4.4,8.8,6.6C736.3,451.1,737.9,451.6,739.5,452.1z M748.7,459.1
					c-2.9-2.2-5.8-4.4-8.8-6.6c-1.6-0.5-3.1-1-4.7-1.6c2.9,2.1,5.7,4.2,8.6,6.3C745.4,457.9,747.1,458.5,748.7,459.1z M757.8,465.8
					c-2.8-2.1-5.7-4.2-8.5-6.3c-1.6-0.6-3.3-1.2-4.9-1.8c2.8,2.1,5.6,4.1,8.4,6.2C754.4,464.5,756.1,465.2,757.8,465.8z
					 M766.8,472.4c-2.8-2.1-5.6-4.1-8.5-6.2c-1.6-0.6-3.3-1.3-5-1.9c2.8,2,5.5,4,8.3,6C763.4,471,765.1,471.7,766.8,472.4z
					 M775.6,478.9c-2.7-2-5.5-4-8.2-6c-1.7-0.7-3.4-1.4-5-2.1c2.7,2,5.4,3.9,8.1,5.8C772.2,477.4,773.9,478.1,775.6,478.9z
					 M784.2,485.1c-2.6-1.9-5.2-3.8-7.9-5.7c-1.7-0.7-3.4-1.5-5.1-2.2c2.6,1.9,5.3,3.8,7.9,5.6C780.8,483.5,782.5,484.3,784.2,485.1
					z M792.9,491.3c-2.6-1.9-5.2-3.7-7.8-5.6c-1.7-0.8-3.3-1.5-5-2.3c2.5,1.8,5.1,3.6,7.6,5.3C789.3,489.6,791.1,490.4,792.9,491.3z
					 M801.3,497.2c-2.5-1.8-5-3.5-7.5-5.3c-1.7-0.8-3.5-1.7-5.2-2.5c2.5,1.8,5,3.5,7.5,5.2C797.8,495.4,799.5,496.3,801.3,497.2z
					 M809.4,502.9c-2.4-1.6-4.8-3.3-7.2-5c-1.7-0.8-3.4-1.7-5.1-2.6c2.4,1.7,4.8,3.3,7.2,4.9C806,501.2,807.7,502,809.4,502.9z
					 M817.5,508.5c-2.3-1.6-4.6-3.2-6.9-4.8c-1.7-0.9-3.3-1.7-5-2.6c2.2,1.5,4.5,3.1,6.7,4.5C814.1,506.7,815.8,507.6,817.5,508.5z
					 M825.5,514c-2.2-1.5-4.4-3-6.6-4.5c-1.6-0.9-3.3-1.8-5-2.7c2.2,1.5,4.3,2.9,6.4,4.3C822.1,512.1,823.8,513,825.5,514z
					 M833.1,519.1c-2-1.3-3.9-2.7-5.9-4c-1.6-0.9-3.2-1.8-4.8-2.7c2,1.3,4,2.6,5.9,3.9C829.9,517.2,831.5,518.2,833.1,519.1z
					 M840.2,523.9c-1.7-1.1-3.4-2.2-5-3.4c-1.4-0.8-2.7-1.6-4.1-2.4c1.6,1,3.2,2.1,4.8,3.1C837.3,522.1,838.8,523,840.2,523.9z
					 M846.6,528.1c-1.2-0.8-2.5-1.6-3.7-2.4c-0.8-0.5-1.6-0.9-2.4-1.4c0.9,0.6,1.9,1.2,2.8,1.8C844.4,526.8,845.5,527.4,846.6,528.1
					z M1029.4,353.1c-0.9,0.4-1.8,0.8-2.8,1.2c-4.7,35.1-11.9,81.5-36.9,114.6c-31.7,42.1-92.2,62.7-212.7,10.8
					c2.7,1.9,5.3,3.9,8,5.8c119,54.2,179,37.7,209.8-2.5C1022.2,447.5,1026.8,393.2,1029.4,353.1z M1026.7,354.1
					c0.9-0.4,1.9-0.8,2.7-1.2c0.1-1.2,0.2-2.4,0.2-3.6c-0.8,0.4-1.7,0.9-2.5,1.4C1027,351.8,1026.8,352.9,1026.7,354.1z
					 M587.6,386.7c-0.8-0.2-1.6-0.5-2.4-0.7c1.5,0.6,3,1.1,4.5,1.6C589,387.3,588.3,387,587.6,386.7z M593.2,388.4
					c-1.3-0.4-2.6-0.8-3.8-1.2c1.5,0.6,3,1.3,4.6,1.9c1.3,0.5,2.5,0.9,3.8,1.4C596.2,389.8,594.7,389.1,593.2,388.4z M598.3,389.9
					c-1.3-0.4-2.7-0.8-4-1.1c1.8,0.8,3.6,1.6,5.3,2.4c1.4,0.5,2.7,0.9,4.1,1.4C601.9,391.7,600.2,390.8,598.3,389.9z M603.7,391.4
					c-1.5-0.4-2.9-0.8-4.4-1.2c2,1,3.9,1.9,5.9,2.9c1.5,0.5,3,1,4.5,1.5C607.7,393.5,605.7,392.5,603.7,391.4z M608.8,392.8
					c-1.4-0.4-2.8-0.7-4.3-1.1c2.1,1.1,4.2,2.2,6.2,3.3c1.5,0.5,3,1,4.4,1.4C613.1,395.1,611,394,608.8,392.8z M614.1,394.2
					c-1.5-0.4-3-0.8-4.5-1.2c2.2,1.2,4.4,2.4,6.6,3.7c1.5,0.5,3.1,1,4.6,1.5C618.6,396.8,616.4,395.5,614.1,394.2z M619.2,395.4
					c-1.5-0.4-2.9-0.7-4.3-1.1c2.3,1.3,4.6,2.7,6.8,4c1.5,0.5,3,0.9,4.6,1.4C623.9,398.3,621.5,396.9,619.2,395.4z M624.3,396.7
					c-1.5-0.4-3-0.7-4.5-1.1c2.4,1.5,4.8,2.9,7.2,4.3c1.6,0.5,3.1,1,4.7,1.4C629.2,399.8,626.8,398.2,624.3,396.7z M629.3,397.9
					c-1.5-0.3-2.9-0.7-4.4-1c2.5,1.6,5,3.1,7.4,4.7c1.5,0.4,3,0.9,4.6,1.3C634.4,401.2,631.8,399.5,629.3,397.9z M634.3,399
					c-1.5-0.3-3-0.7-4.4-1c2.6,1.7,5.1,3.3,7.7,5c1.5,0.4,3.1,0.9,4.7,1.3C639.6,402.5,636.9,400.8,634.3,399z M639.3,400.1
					c-1.5-0.3-3-0.6-4.5-1c2.7,1.8,5.3,3.5,8,5.3c1.5,0.4,3,0.8,4.5,1.2C644.6,403.8,641.9,402,639.3,400.1z M644.2,401.1
					c-1.5-0.3-2.9-0.6-4.4-0.9c2.7,1.9,5.4,3.7,8.1,5.5c1.5,0.4,3.1,0.8,4.6,1.2C649.7,405,646.9,403.1,644.2,401.1z M649,402.1
					c-1.5-0.3-2.9-0.6-4.4-0.9c2.8,2,5.6,3.9,8.4,5.8c1.5,0.4,3,0.7,4.5,1.1C654.7,406.2,651.9,404.2,649,402.1z M653.8,403
					c-1.4-0.3-2.9-0.5-4.3-0.8c2.9,2,5.7,4,8.5,6c1.5,0.4,3,0.7,4.5,1.1C659.6,407.3,656.8,405.2,653.8,403z M658.6,404
					c-1.5-0.3-2.9-0.6-4.4-0.8c3,2.1,5.9,4.2,8.8,6.3c1.5,0.4,3,0.7,4.5,1C664.5,408.3,661.6,406.2,658.6,404z M663.3,404.8
					c-1.4-0.2-2.8-0.5-4.3-0.7c3,2.2,6,4.4,8.9,6.5c1.5,0.3,3,0.6,4.4,1C669.4,409.3,666.4,407.1,663.3,404.8z M668.1,405.6
					c-1.4-0.2-2.9-0.5-4.3-0.7c3,2.3,6.1,4.5,9.1,6.8c1.5,0.3,3,0.6,4.4,0.9C674.2,410.3,671.2,408,668.1,405.6z M672.7,406.4
					c-1.4-0.2-2.8-0.4-4.2-0.7c3.1,2.4,6.2,4.7,9.2,7c1.5,0.3,2.9,0.6,4.4,0.9C679,411.2,675.8,408.8,672.7,406.4z M677.4,407.1
					c-1.4-0.2-2.8-0.4-4.2-0.7c3.1,2.4,6.3,4.8,9.3,7.2c1.5,0.3,2.9,0.6,4.4,0.9C683.7,412,680.5,409.5,677.4,407.1z M682,407.8
					c-1.4-0.2-2.8-0.4-4.2-0.6c3.2,2.5,6.4,5,9.5,7.4c1.4,0.3,2.9,0.5,4.3,0.8C688.4,412.8,685.2,410.3,682,407.8z M997.9,366.7
					c-59.5,24.5-171.3,61.5-315.5,41c3.2,2.5,6.4,5.1,9.6,7.6C839.8,441.4,942.4,396.6,997.9,366.7z M1001.8,365.1
					c-0.7,0.3-1.5,0.6-2.2,0.9c-55.1,29.8-158.2,75.8-307.3,49.6c3.2,2.5,6.4,5,9.5,7.4C856.6,455.5,951.3,400.4,1001.8,365.1z
					 M1005.2,363.7c-0.8,0.4-1.6,0.7-2.5,1c-50.3,35.2-145.1,91-300.5,58.6c3.2,2.5,6.3,4.9,9.4,7.3
					C873.2,469.6,959.5,404.4,1005.2,363.7z M1008.3,362.4c-0.8,0.4-1.7,0.7-2.6,1.1c-45.5,40.6-131.8,106.3-293.8,67.4
					c3.1,2.4,6.2,4.8,9.2,7.1C889.8,483.8,967.5,408.5,1008.3,362.4z M1011.4,361c-0.9,0.4-1.8,0.8-2.7,1.1
					c-40.7,46.1-118.4,121.8-287.2,76.1c3,2.3,6.1,4.6,9.1,6.9C906.5,498.2,975.6,412.7,1011.4,361z M1014.5,359.7
					c-0.9,0.4-1.8,0.8-2.7,1.2C976,412.5,907,498.4,731.1,445.5c3,2.3,6,4.5,9,6.8c151.8,50.1,219.2-7.1,255.4-60.7
					C1003,380.5,1009.2,369.5,1014.5,359.7z M1017.5,358.4c-0.9,0.4-1.8,0.8-2.7,1.2c-5.3,9.9-11.5,21-19.1,32.2
					c-36.2,53.6-103.6,110.7-255.1,60.9c3,2.2,5.9,4.4,8.8,6.6c137.7,49.1,202.7,7.6,238-42.9C1001,396.8,1010.2,375.9,1017.5,358.4
					z M1020.5,357c-0.9,0.4-1.8,0.8-2.7,1.2c-7.2,17.6-16.5,38.6-30.2,58.2c-35.3,50.5-100.3,92-237.7,43.2c2.9,2.1,5.7,4.3,8.6,6.4
					C887.9,515.6,951,483.5,985,436.2C1003.3,410.8,1013.2,381,1020.5,357z M1023.5,355.7c-0.9,0.4-1.8,0.8-2.8,1.2
					c-7.3,24-17.2,53.9-35.6,79.4c-34,47.3-97,79.4-226.2,30.1c2.9,2.1,5.7,4.2,8.5,6.2c124.2,50.7,185.8,25.2,218.6-19.3
					C1008,423.6,1017.1,385.4,1023.5,355.7z M1024.2,355.4l-0.5,0.2c-6.3,29.7-15.4,68-37.4,97.9c-32.8,44.5-94.3,70-218.2,19.7
					c2.8,2,5.6,4.1,8.3,6.1c120.9,52.2,181.5,31.7,213.2-10.4c24.9-33,32.1-79.4,36.8-114.4C1025.7,354.7,1025,355.1,1024.2,355.4z
					 M1023.7,355.4l0.4-0.2c0.8-0.4,1.6-0.7,2.4-1c0.2-1.2,0.3-2.3,0.5-3.4c-0.8,0.5-1.6,0.9-2.5,1.4
					C1024.2,353.2,1024,354.3,1023.7,355.4z M1020.8,356.7c0.9-0.4,1.8-0.8,2.7-1.2c0.2-1.1,0.5-2.2,0.7-3.2
					c-0.8,0.5-1.6,0.9-2.5,1.4C1021.4,354.7,1021.1,355.7,1020.8,356.7z M1017.8,358c0.9-0.4,1.8-0.8,2.7-1.2c0.3-1,0.6-2,0.9-3
					c-0.8,0.5-1.6,0.9-2.5,1.4C1018.6,356.1,1018.2,357.1,1017.8,358z M1014.9,359.3c0.9-0.4,1.8-0.8,2.7-1.2
					c0.4-0.9,0.8-1.8,1.1-2.7l-0.5,0.3l-2,1.1C1015.8,357.6,1015.4,358.4,1014.9,359.3z M1012,360.6c0.9-0.4,1.8-0.8,2.7-1.1
					c0.5-0.8,0.9-1.6,1.3-2.5c-0.8,0.5-1.6,0.9-2.4,1.4C1013,359.1,1012.5,359.8,1012,360.6z M1009,361.8c0.9-0.4,1.7-0.8,2.6-1.1
					c0.5-0.7,1-1.5,1.5-2.2c-0.8,0.4-1.6,0.9-2.4,1.3C1010.2,360.5,1009.6,361.2,1009,361.8z M1006.2,363.1c0.8-0.4,1.7-0.7,2.5-1
					c0.5-0.6,1.1-1.2,1.6-1.9c-0.7,0.4-1.5,0.8-2.3,1.3C1007.4,362,1006.8,362.5,1006.2,363.1z M1003.4,364.2
					c0.7-0.3,1.5-0.6,2.2-0.9c0.5-0.5,1.1-1,1.6-1.5c-0.7,0.4-1.3,0.8-2,1.1C1004.6,363.4,1004,363.8,1003.4,364.2z M1001.3,365.1
					c0.4-0.2,0.8-0.4,1.2-0.5c0.4-0.3,0.7-0.5,1.1-0.8C1002.9,364.2,1002.1,364.7,1001.3,365.1z M1.6,353.2
					c73.2-29,282.9-93.7,510.4,5.3c22.9,10,45.3,18.3,67.2,25.3c-21.7-8.3-44.1-18-67.3-29.5C263.6,231.5,70.5,308,1.6,344.7v-0.2
					c69.1-36.7,262.1-113.1,510.4,9.8c24.4,12.1,47.9,22.2,70.6,30.8c1.2,0.4,2.3,0.7,3.4,1c-23.7-10.1-48.3-22-74.2-36
					C244,204.3,66.3,290.5,1.6,335v-0.2c64.9-44.6,242.6-130.6,510.4,15.1c26.4,14.4,51.6,26.5,75.8,36.7c1.4,0.4,2.8,0.9,4.3,1.3
					c-25.3-11.8-52-25.8-80.1-42.2c-285.9-167.2-449.5-74-510.3-21.5v-0.3c60.9-52.6,224.5-145.6,510.4,21.6
					c28.6,16.7,55.6,30.9,81.3,42.8c1.4,0.4,2.8,0.8,4.2,1.2c-26.8-13.5-55.3-29.4-85.6-48.2C209.7,154,58.4,251.3,1.6,311.7v-0.3
					c57-60.4,208.4-157.5,510.4,29.7c30.6,19,59.4,35.1,86.5,48.6c1.5,0.4,3,0.9,4.5,1.3c-28.4-15.1-58.7-33-91.1-54.1
					C195.9,131.5,54.8,229.4,1.6,297.3V297c53.4-67.9,194.6-165.5,510.4,39.7c32.7,21.3,63.3,39.3,91.9,54.5
					c1.5,0.4,2.9,0.8,4.4,1.2c-29.8-16.8-61.9-36.6-96.4-59.9C185,111.5,51.7,205.8,1.6,280.4V280c50.3-74.6,183.8-168.5,510.4,52.3
					c34.7,23.5,67,43.4,97,60.3c1.5,0.4,3.1,0.8,4.6,1.2c-31.3-18.4-65.1-40.1-101.7-65.7C177.5,94.4,49.4,180.7,1.6,260.4V260
					c48-79.8,176.3-165.7,510.4,67.9c36.8,25.7,70.8,47.6,102.3,66.1c1.5,0.4,3,0.8,4.4,1.1c-32.8-20-68.3-43.7-106.8-71.4
					C173.8,80.5,48.2,154.4,1.6,237.1v-0.4C48.3,154,174.1,80.5,511.9,323.6c38.7,27.9,74.4,51.6,107.3,71.7c1.5,0.4,3,0.8,4.5,1.1
					c-34.2-21.6-71.4-47.1-112-77C173.8,70.1,48.2,127.9,1.6,210.6v-0.5c46.8-82.6,172.7-140,510.4,109.1
					c40.7,30,78.1,55.6,112.4,77.3c1.5,0.4,3,0.7,4.5,1.1c-35.6-23.2-74.5-50.6-117-82.6C177.1,62.6,49.5,102.1,1.6,181.6v-0.5
					c48.1-79.3,175.9-118.4,510.4,133.7c42.7,32.2,81.7,59.6,117.4,82.9c1.5,0.3,3,0.7,4.5,1c-37-24.8-77.6-54-122-88.1
					C182.7,57.6,52,78.1,1.6,151.4v-0.4C52.2,77.8,183,57.6,511.9,310.4c44.6,34.3,85.3,63.5,122.4,88.4c1.5,0.3,3,0.7,4.5,1
					c-38.5-26.4-80.7-57.4-127-93.6C189.7,54.3,55.4,56.4,1.6,121.2v-0.4c54-64.7,188.4-66.5,510.4,185.3
					c46.5,36.4,88.8,67.5,127.4,93.9c1.5,0.3,2.9,0.6,4.4,0.9c-39.9-27.9-83.7-60.7-131.9-99C197.2,52.1,59.3,37.1,1.6,92.1v-0.4
					c57.9-54.8,196-39.6,510.4,210c48.4,38.4,92.3,71.3,132.3,99.3c1.5,0.3,3,0.6,4.4,0.9c-41.2-29.5-86.7-64.1-136.9-104.4
					C204.9,50.4,63.5,20.2,1.6,64.6v-0.4c62.1-44.3,203.6-13.9,510.4,233.1c50.3,40.5,95.8,75.1,137.2,104.7
					c1.5,0.3,2.9,0.5,4.3,0.8c-42.6-31-89.7-67.4-141.6-109.7C212.3,48.9,67.8,5.3,1.6,39.1v-0.4C67.9,5,212.5,48.8,511.9,292.9
					c52.1,42.5,99.2,78.9,142,110c1.5,0.3,2.9,0.6,4.4,0.8c-44-32.5-92.6-70.6-146.5-115C219.2,47.4,71.9-7.9,1.6,15.5v-0.4
					C72.1-8.2,219.4,47.3,511.9,288.5c53.9,44.5,102.7,82.7,146.8,115.2c1.4,0.3,2.9,0.5,4.3,0.8c-45.3-34-95.6-73.9-151.2-120.2
					C297.1,105.4,159.3,23.9,72.4,0h0.9c87,24.3,224.7,105.9,438.6,284.1c55.7,46.4,106.1,86.4,151.5,120.4c1.4,0.2,2.9,0.5,4.3,0.7
					c-46.7-35.5-98.5-77.1-155.9-125.4C326.7,124.2,197.6,38.8,108.8,0h0.6c88.9,39,217.8,124.4,402.5,279.8
					c57.5,48.4,109.4,90,156.2,125.6c1.4,0.2,2.8,0.5,4.3,0.7c-48-37-101.4-80.3-160.6-130.6C343.4,132.6,220.6,46.4,131.8,0h0.5
					c88.8,46.5,211.5,132.7,379.6,275.4c59.3,50.4,112.8,93.7,160.9,130.8c1.4,0.2,2.8,0.4,4.2,0.7
					c-49.4-38.5-104.2-83.5-165.2-135.6C355.6,137.5,237.9,51.4,149.8,0h0.4c88.1,51.4,205.7,137.5,361.7,271
					c61.1,52.3,116,97.3,165.5,135.9c1.4,0.2,2.8,0.4,4.2,0.6c-50.7-40-107.1-86.6-169.9-140.7C365.1,140.4,251.8,54.8,164.7,0h0.4
					c87.1,54.8,200.3,140.3,346.8,266.6c62.8,54.2,119.3,100.9,170.1,140.9c145.7,20.8,258.4-17.2,317.5-41.7c1.9-1,3.8-2,5.6-3
					c1.7-1.2,3.4-2.4,5-3.6c1.5-1.4,3-2.8,4.5-4.1l1-1.2c1-1.1,2-2.3,2.9-3.4c1.2-1.7,2.3-3.4,3.4-5c1-1.9,2-3.6,2.9-5.3
					c0.8-2,1.7-3.8,2.5-5.6c0.7-2,1.4-4,2-5.8c0.3-1.2,0.6-2.4,0.9-3.5v0.7c-0.1,0.4-0.2,0.7-0.3,1.1c0.1-0.2,0.2-0.5,0.3-0.7v1.5
					l-0.1,0.8l0.1-0.3v0.4l-0.2,0.5c-0.2,0.9-0.3,1.9-0.5,2.9c0.2-0.4,0.5-0.7,0.7-1v0.4c-0.2,0.4-0.5,0.8-0.8,1.2
					c-0.2,1-0.3,2-0.4,3.1c0.4-0.5,0.8-1,1.2-1.5v0.3c-0.4,0.5-0.8,1-1.3,1.5c-0.2,1-0.3,2.1-0.4,3.2c0.6-0.6,1.2-1.2,1.7-1.7v0.3
					c-0.6,0.6-1.2,1.1-1.8,1.8c-0.2,1.1-0.3,2.2-0.4,3.3c0.7-0.6,1.4-1.1,2-1.6c0.1-1,0.1-2,0.2-3v3.1l0,0c-0.1,1.2-0.2,2.3-0.2,3.5
					l0.2-0.2v0.2l-0.3,0.2l-0.2,2.7l-0.1,0.9l0.5-0.3v0.2l-0.5,0.3c-0.1,1.2-0.2,2.4-0.2,3.6l0.7-0.3v0.2l-0.8,0.3
					c-2.6,40.2-7.2,94.5-34.5,130.1c-30.8,40.1-90.6,56.6-209.2,2.9c2.7,1.9,5.3,3.8,8,5.7c118,56.3,177.6,43.2,207.6,4.7
					c18.6-23.8,25.9-57.4,28.9-90.2v2.1c-3.1,32.2-10.5,64.9-28.7,88.2c-30,38.5-89.4,51.6-207-4.2c2.6,1.8,5.1,3.6,7.7,5.4
					c117.9,58.7,177.3,48.5,206.8,11.4c10.5-13.2,17.1-29.8,21.3-47.8v0.9c-4.2,17.8-10.8,34.1-21.1,47.1
					c-29.4,37-88.7,47.3-205.9-10.9c2.5,1.8,5,3.5,7.4,5.2c118.3,61.2,177.9,53.7,206.8,17.8c5.2-6.5,9.5-14,12.8-22.1v0.5
					c-3.4,8-7.5,15.3-12.7,21.7c-28.8,35.8-88.2,43.5-205.8-17.1c2.4,1.6,4.8,3.3,7.1,4.9c119.3,64,179.2,58.8,207.6,23.9
					c1.3-1.6,2.6-3.3,3.8-5.1v0.3c-1.2,1.7-2.4,3.3-3.6,4.9c-28.3,34.8-87.9,40.1-206.3-23.1c2.3,1.6,4.6,3.1,6.8,4.7
					c112.8,62.6,172.9,64,203.1,36v0.3c-30.2,27.7-89.9,26.4-201.6-35.2c2.2,1.5,4.3,2.9,6.5,4.3c102.9,58.8,162.3,67.5,195.1,49
					v0.2c-32.6,18.3-91.6,9.8-193.1-47.9c1.9,1.3,3.8,2.6,5.8,3.8c94.4,55.6,152.7,69.6,187.4,58.9v0.2
					c-34.3,10.6-91.8-3.1-184.5-57.2c1.6,1.1,3.3,2.2,4.9,3.2c87,52.6,143.8,70.5,179.6,66.2v0.2c-35.3,4.2-90.8-13-175.3-63.6
					c1.2,0.8,2.3,1.5,3.5,2.2c55,34.1,98.2,54.5,131.6,64.3h-0.6c-31.6-9.3-71.8-28.1-122.5-58.9c43.7,27.6,79.9,46.8,109.8,58.9
					h-0.4c-31.8-12.9-70.7-33.8-118-64.2c-5-3.1-10-6.3-15.2-9.6c-4.8-3-9.8-6-14.8-9.2c-4.6-2.8-9.2-5.7-14-8.7
					c-4.9-3-9.9-6-15-9.2c-4.9-2.9-9.9-6-14.9-9.1c-4.9-2.9-9.8-5.8-14.8-8.9c-4.8-2.8-9.7-5.7-14.7-8.7c-4.8-2.8-9.6-5.6-14.5-8.5
					c-4.7-2.7-9.5-5.4-14.3-8.2c-4.6-2.6-9.3-5.2-14-8c-4.5-2.5-9-5-13.7-7.6c-4.6-2.5-9.2-5-14-7.6c-4.5-2.4-9.1-4.8-13.8-7.3
					c-4.5-2.2-9-4.6-13.5-7c-4.4-2.2-8.9-4.4-13.5-6.8c-4.2-2-8.5-4-12.8-6.1c-4.1-1.9-8.3-3.8-12.5-5.8c-4.2-1.8-8.4-3.6-12.7-5.5
					c-3.9-1.5-7.9-3.1-11.9-4.8c-3.8-1.3-7.5-2.7-11.3-4.1c-23-7.2-46.5-15.9-70.7-26.4c-227.5-99.1-437.2-34.3-510.3-5.3L1.6,353.2
					L1.6,353.2z"/>
			</g>
		</g>
	</g>
</g>
<g>
	<g>
		<g>
			<path class="st4" d="M179.7,515.9h-2.7V490h2.7V515.9z"/>
			<path class="st4" d="M215,515.9h-3.3l-12-20.6c-0.1-0.3-0.3-0.5-0.4-0.8c-0.1-0.3-0.2-0.5-0.3-0.8h-0.1c0,0.3,0.1,0.7,0.1,1.3
				s0,1.3,0,2.3v18.7h-2.7V490h3.5l11.6,20.3c0.2,0.4,0.4,0.8,0.6,1.1s0.3,0.5,0.3,0.7h0.1c-0.1-0.4-0.1-0.9-0.1-1.5
				c0-0.6,0-1.4,0-2.3V490h2.7V515.9z"/>
			<path class="st4" d="M231.5,515.9V490h6.4c4.1,0,7.2,1,9.2,3.1s3.1,5.3,3.1,9.5c0,4-1.1,7.2-3.4,9.6c-2.3,2.4-5.3,3.6-9.1,3.6
				L231.5,515.9L231.5,515.9z M234.2,492.7v20.4h3.5c3.1,0,5.4-0.9,7.1-2.7c1.7-1.8,2.6-4.4,2.6-7.7c0-3.3-0.8-5.8-2.4-7.5
				s-4-2.5-7.1-2.5L234.2,492.7L234.2,492.7z"/>
			<path class="st4" d="M282.2,505.4c0,3.6-0.7,6.4-2.2,8.2s-3.7,2.7-6.6,2.7c-2.8,0-4.9-0.9-6.4-2.6s-2.1-4.4-2.1-7.9V490h2.7v15.6
				c0,2.6,0.5,4.6,1.5,6c1,1.3,2.5,2,4.5,2c2,0,3.4-0.6,4.4-1.9c1-1.3,1.5-3.2,1.5-5.8V490h2.7L282.2,505.4L282.2,505.4z"/>
			<path class="st4" d="M296.4,513.9l1.3-2.3c1,0.7,1.9,1.2,2.9,1.5c1,0.3,2.1,0.5,3.3,0.5c1.4,0,2.6-0.4,3.5-1.1
				c0.9-0.7,1.4-1.8,1.4-3.2c0-1.3-0.4-2.3-1.2-3c-0.8-0.8-2-1.5-3.8-2.2c-2.2-0.9-3.8-1.9-4.9-3s-1.6-2.6-1.6-4.4
				c0-2.1,0.7-3.8,2-5.1c1.4-1.3,3.2-2,5.4-2c1,0,2.1,0.1,3,0.4c1,0.2,2,0.6,3.1,1.2l-1,2.4c-0.9-0.5-1.8-0.8-2.6-1
				s-1.7-0.3-2.7-0.3c-1.4,0-2.5,0.4-3.3,1.1c-0.8,0.7-1.2,1.7-1.2,3c0,1.1,0.4,2,1.1,2.7c0.8,0.7,2,1.4,3.7,2.1c2.3,0.9,4,2,5,3.1
				c1,1.2,1.5,2.7,1.5,4.7c0,2.1-0.7,3.8-2,5.2c-1.4,1.4-3.3,2.1-5.8,2.1c-1.4,0-2.7-0.2-3.8-0.6
				C298.7,515.4,297.6,514.7,296.4,513.9z"/>
			<path class="st4" d="M340.2,492.7h-6.7v23.1h-2.7v-23.1h-6.7V490h16.1L340.2,492.7L340.2,492.7z"/>
			<path class="st4" d="M370.8,515.9h-3.2l-4-7.4c-0.8-1.4-1.4-2.2-1.9-2.6c-0.5-0.4-1.2-0.6-1.9-0.6H357v10.6h-2.7V490h7
				c2,0,3.7,0.6,5.1,1.8s2,3,2,5.3c0,1.8-0.4,3.4-1.3,4.6s-2,2.1-3.5,2.7v0.1c0.5,0.3,0.9,0.7,1.3,1.1s0.8,1,1.2,1.7L370.8,515.9z
				 M357,492.7v9.8h3.7c1.4,0,2.5-0.5,3.4-1.5s1.4-2.2,1.4-3.8c0-1.4-0.4-2.5-1.2-3.3c-0.8-0.8-2-1.2-3.5-1.2H357z"/>
			<path class="st4" d="M387.3,515.9h-2.7V490h2.7V515.9z"/>
			<path class="st4" d="M416.2,515.9h-12.3V490h11.8v2.8h-9.1v8.6h8.4v2.7h-8.4v9.1h9.6V515.9z"/>
			<path class="st4" d="M429,513.9l1.3-2.3c1,0.7,1.9,1.2,2.9,1.5c1,0.3,2.1,0.5,3.3,0.5c1.4,0,2.6-0.4,3.5-1.1
				c0.9-0.7,1.4-1.8,1.4-3.2c0-1.3-0.4-2.3-1.2-3s-2-1.5-3.8-2.2c-2.2-0.9-3.8-1.9-4.9-3s-1.6-2.6-1.6-4.4c0-2.1,0.7-3.8,2-5.1
				c1.4-1.3,3.2-2,5.4-2c1,0,2.1,0.1,3,0.4c1,0.2,2,0.6,3.1,1.2l-1,2.4c-0.9-0.5-1.8-0.8-2.6-1c-0.8-0.2-1.8-0.3-2.7-0.3
				c-1.4,0-2.5,0.4-3.3,1.1c-0.8,0.7-1.2,1.7-1.2,3c0,1.1,0.4,2,1.1,2.7c0.8,0.7,2,1.4,3.7,2.1c2.3,0.9,4,2,5,3.1
				c1,1.2,1.5,2.7,1.5,4.7c0,2.1-0.7,3.8-2,5.2c-1.4,1.4-3.3,2.1-5.8,2.1c-1.4,0-2.7-0.2-3.8-0.6S430.2,514.7,429,513.9z"/>
			<path class="st4" d="M485.2,521.8h-2.4c-1.7-2.1-2.9-4.5-3.8-7.1c-0.8-2.6-1.3-5.5-1.3-8.6c0-3.1,0.4-6,1.3-8.7
				c0.8-2.7,2.1-5.1,3.8-7.3h2.4c-1.7,2.3-3,4.8-3.8,7.4s-1.3,5.5-1.3,8.6c0,3,0.4,5.8,1.3,8.5C482.3,517.1,483.6,519.5,485.2,521.8
				z"/>
			<path class="st4" d="M501.8,506.4v9.5H499V490h6.4c2.5,0,4.4,0.7,5.8,2.1c1.4,1.4,2.1,3.3,2.1,5.8c0,2.5-0.8,4.5-2.3,6.1
				s-3.6,2.4-6.2,2.4L501.8,506.4L501.8,506.4z M501.8,492.7v10.9h2.9c1.9,0,3.3-0.5,4.3-1.5s1.5-2.4,1.5-4.2c0-1.8-0.5-3.1-1.4-4
				c-0.9-0.9-2.3-1.3-4.1-1.3H501.8z"/>
			<path class="st4" d="M545.4,490l-8.6,25.9h-3l-8.4-25.9h3l6.4,20.5c0.1,0.3,0.2,0.7,0.3,1.1c0.1,0.4,0.1,0.8,0.2,1.2h0.1
				c0-0.4,0.1-0.7,0.2-1.1s0.2-0.8,0.3-1.2l6.6-20.5H545.4z"/>
			<path class="st4" d="M573.5,492.7h-6.7v23.1H564v-23.1h-6.7V490h16.2L573.5,492.7L573.5,492.7z"/>
			<path class="st4" d="M587.3,521.8h-2.4c1.7-2.2,3-4.7,3.8-7.3c0.8-2.6,1.3-5.5,1.3-8.5c0-3-0.4-5.9-1.3-8.6
				c-0.8-2.7-2.1-5.1-3.8-7.4h2.4c1.7,2.2,3,4.6,3.8,7.3s1.3,5.6,1.3,8.7c0,3.1-0.4,6-1.3,8.6C590.2,517.3,589,519.6,587.3,521.8z"
				/>
			<path class="st4" d="M639.6,515.9h-12.1V490h2.7v23.1h9.3L639.6,515.9L639.6,515.9z"/>
			<path class="st4" d="M665,492.7h-6.7v23.1h-2.7v-23.1h-6.7V490H665L665,492.7L665,492.7z"/>
			<path class="st4" d="M679.1,515.9V490h6.4c4.1,0,7.2,1,9.2,3.1s3.1,5.3,3.1,9.5c0,4-1.1,7.2-3.4,9.6c-2.3,2.4-5.3,3.6-9.2,3.6
				L679.1,515.9L679.1,515.9z M681.8,492.7v20.4h3.5c3,0,5.4-0.9,7.1-2.7c1.7-1.8,2.5-4.4,2.5-7.7c0-3.3-0.8-5.8-2.4-7.5
				s-4-2.5-7.1-2.5L681.8,492.7L681.8,492.7z"/>
		</g>
	</g>
	<g>
		<path class="st5" d="M300.7,242c4.1-11.4,8.3-22.9,12.4-34.3c3.5,7.9,7.1,15.8,10.6,23.7C316,234.9,308.4,238.5,300.7,242z"/>
		<path class="st6" d="M322.3,201.2c5.2-2.7,10.4-5.3,15.7-8c22.7,10.3,45.3,20.5,68,30.8c-3.4,9.2-6.7,18.3-10,27.5
			c-14.4,6.3-28.8,12.6-43.1,18.9C342.5,247.4,332.4,224.3,322.3,201.2z"/>
		<path class="st7" d="M407.4,249.4c15.5-45.1,30.9-90.1,46.4-135.2c14,31.9,28,63.9,42,95.9C466.3,223.2,436.8,236.3,407.4,249.4z"
			/>
		<path class="st8" d="M459.7,105.1c32.3-14.1,64.6-28.2,97-42.3c-17.9,46.3-35.9,92.5-53.8,138.8
			C488.5,169.3,474.1,137.2,459.7,105.1z"/>
		<path class="st9" d="M559.6,78.7c5,1.6,10,3.2,15.1,4.7c-11.4,14.9-22.9,29.8-34.3,44.7C546.8,111.7,553.2,95.2,559.6,78.7z"/>
		<path class="st4" d="M360.7,277.5c45.6-20.5,91.2-41,136.9-61.5c1.7,40.8,3.4,81.6,5,122.5C455.3,318.1,408,297.8,360.7,277.5z"/>
		<path class="st10" d="M516.2,377.5c18.6,1.9,37.2,3.8,55.9,5.6c-21.5-48.8-43-97.6-64.4-146.4
			C510.4,283.6,513.3,330.6,516.2,377.5z"/>
	</g>
	<g>
		<g>
			<path class="st11" d="M176.7,471.6v-58.2H193c4.9,0,8.9,1.2,11.7,3.6c2.9,2.4,4.3,5.6,4.3,9.7c0,3.3-0.9,6.2-2.6,8.6
				c-1.8,2.4-4.2,4.2-7.2,5.2v0.2c3.9,0.5,6.9,1.9,9.2,4.4c2.3,2.5,3.5,5.8,3.5,9.8c0,5-1.8,9-5.3,12.1c-3.5,3.1-7.9,4.6-13.3,4.6
				L176.7,471.6L176.7,471.6z M183.4,419.6v18.8h6.9c3.7,0,6.6-0.9,8.6-2.7s3.1-4.3,3.1-7.6c0-2.8-0.9-5-2.8-6.4s-4.6-2.1-8.2-2.1
				H183.4z M183.4,444.5v20.9h9.1c3.9,0,7-1,9.1-2.8c2.2-1.9,3.2-4.5,3.2-7.8c0-3.4-1.1-6-3.4-7.7s-5.8-2.6-10.3-2.6L183.4,444.5
				L183.4,444.5z"/>
			<path class="st11" d="M244.6,471.6h-6.7v-58.2h6.7V471.6z"/>
			<path class="st11" d="M320.1,471.6h-8.2l-29.4-46.4c-0.4-0.6-0.7-1.2-1-1.8c-0.3-0.6-0.6-1.2-0.8-1.9h-0.2
				c0.1,0.6,0.2,1.6,0.2,2.9c0,1.3,0.1,3,0.1,5.1v42h-6.7v-58.2h8.7l28.6,45.6c0.6,1,1.1,1.7,1.5,2.4c0.4,0.6,0.7,1.1,0.8,1.5h0.2
				c-0.1-0.8-0.2-2-0.3-3.4c-0.1-1.4-0.1-3.1-0.1-5.1v-41h6.7L320.1,471.6L320.1,471.6z"/>
			<path class="st11" d="M432.4,471.6h-8.2l-29.4-46.4c-0.4-0.6-0.7-1.2-1-1.8s-0.6-1.2-0.8-1.9h-0.2c0.1,0.6,0.2,1.6,0.2,2.9
				c0,1.3,0.1,3,0.1,5.1v42h-6.7v-58.2h8.7l28.6,45.6c0.6,1,1.1,1.7,1.5,2.4c0.4,0.6,0.7,1.1,0.8,1.5h0.2c-0.1-0.8-0.2-2-0.3-3.4
				c-0.1-1.4-0.1-3.1-0.1-5.1v-41h6.7L432.4,471.6L432.4,471.6z"/>
			<path class="st11" d="M455.2,471.6l21.9-58.2h6.9l22,58.2h-7.4l-5.8-15.6h-24.8l-5.5,15.6H455.2z M470.4,449.9h20.3l-9.2-25.5
				c-0.2-0.4-0.3-0.9-0.4-1.6c-0.1-0.6-0.3-1.4-0.4-2.3h-0.2c-0.1,0.8-0.3,1.5-0.4,2.2c-0.1,0.6-0.3,1.2-0.5,1.7L470.4,449.9z"/>
			<path class="st11" d="M559.2,471.6H529v-58.2h29v6.2h-22.3V439h20.6v6.1h-20.6v20.4h23.6L559.2,471.6L559.2,471.6z"/>
			<path class="st11" d="M615,471.6h-30.3v-58.2h29v6.2h-22.3V439H612v6.1h-20.6v20.4H615L615,471.6L615,471.6z"/>
			<path class="st11" d="M698.7,471.6H692v-39c0-1.5,0-3.3,0.1-5.1s0.2-4,0.4-6.2h-0.2c-0.3,1.3-0.6,2.4-0.9,3.4
				c-0.3,1-0.5,1.7-0.8,2.3l-19.5,44.7h-3.3l-19.5-44.4c-0.3-0.6-0.5-1.5-0.8-2.5s-0.6-2.2-0.9-3.5h-0.2c0.1,1.2,0.2,2.7,0.2,4.6
				c0,1.9,0.1,4.2,0.1,6.8v38.9h-6.5v-58.2h8.8l17.5,40.6c0.7,1.5,1.2,2.9,1.7,4.1c0.4,1.2,0.8,2.1,0.9,2.9h0.2
				c0.6-1.6,1.1-3,1.5-4.2s0.8-2.2,1.2-3l17.9-40.4h8.4L698.7,471.6L698.7,471.6z"/>
		</g>
	</g>
</g>
</svg>
