<?xml version="1.0" encoding="utf-8"?>
<!-- Generator: Adobe Illustrator 28.0.0, SVG Export Plug-In . SVG Version: 6.00 Build 0)  -->
<svg version="1.1" id="Layer_1" xmlns="http://www.w3.org/2000/svg" xmlns:xlink="http://www.w3.org/1999/xlink" x="0px" y="0px"
	 viewBox="0 0 900 600" style="enable-background:new 0 0 900 600;" xml:space="preserve">
<style type="text/css">
	.st0{opacity:0.7;}
	.st1{clip-path:url(#SVGID_00000096061723220277809450000016801887620280438685_);}
	.st2{fill-rule:evenodd;clip-rule:evenodd;fill:#FFFFFF;}
	.st3{fill:#AADEE9;}
	.st4{clip-path:url(#SVGID_00000166676590789729792300000010703289587827566237_);}
	.st5{clip-path:url(#SVGID_00000175301614069165043060000007819765367673050290_);}
	.st6{clip-path:url(#SVGID_00000029039742262037503720000010602907449931890068_);}
	.st7{clip-path:url(#SVGID_00000176030110949029204770000005953978467907435907_);}
	.st8{fill:#00AEEF;}
	.st9{fill:#433795;}
	.st10{fill:#00A651;}
	.st11{fill:#C52126;}
	.st12{fill:#92298D;}
	.st13{fill:#D6137A;}
	.st14{fill:#F89520;}
	.st15{fill:#2E368F;}
	.st16{fill:#49AF48;}
	.st17{fill:#28245F;}
	.st18{fill:#1F3061;}
	.st19{clip-path:url(#SVGID_00000139988357371862866100000013630280356701307021_);}
	.st20{fill:#DB7AB1;}
	.st21{fill:#F7EC1C;}
	.st22{fill:#F6EB14;}
	.st23{fill:#53C8EB;}
	.st24{fill:#F7EC2A;}
	.st25{fill:#D47CB3;}
	.st26{fill:#F6EC1D;}
	.st27{fill:#C6D92D;}
	.st28{fill:#F5831F;}
	.st29{fill:#E7E622;}
	.st30{fill:#6BCBD8;}
	.st31{fill:#CE8BBC;}
	.st32{fill:#ED1A4C;}
	.st33{fill:none;stroke:#0C0C0C;stroke-width:3;stroke-miterlimit:10;}
	.st34{fill-rule:evenodd;clip-rule:evenodd;}
</style>
<g class="st0">
	<defs>
		<rect id="SVGID_00000045611065426665722640000003566088076284674981_" x="1.56" class="st0" width="896.88" height="600"/>
	</defs>
	<clipPath id="SVGID_00000109714483916451171480000010250920577003068071_">
		<use xlink:href="#SVGID_00000045611065426665722640000003566088076284674981_"  style="overflow:visible;"/>
	</clipPath>
	<g style="clip-path:url(#SVGID_00000109714483916451171480000010250920577003068071_);">
		<rect x="1.56" class="st2" width="1028.81" height="600"/>
		<g>
			<path class="st3" d="M602.27,392.54c-0.89-0.4-1.79-0.81-2.69-1.21c-0.54-0.19-1.08-0.36-1.63-0.55
				C599.4,391.37,600.85,391.98,602.27,392.54 M1007.87,361.26c0.33-0.3,0.67-0.6,1-0.9c-0.72,0.52-1.44,1.03-2.19,1.56
				C1007.08,361.7,1007.48,361.48,1007.87,361.26z M609.54,395.36c-1.47-0.71-2.94-1.43-4.41-2.15c-1.2-0.4-2.4-0.81-3.6-1.22
				c1.42,0.65,2.85,1.3,4.26,1.92C607.05,394.4,608.3,394.88,609.54,395.36z M613.13,397.11c-0.49-0.23-0.98-0.47-1.47-0.71
				c-0.69-0.26-1.38-0.54-2.07-0.8C610.77,396.11,611.95,396.6,613.13,397.11z M1012.63,357.43c0.3-0.34,0.59-0.68,0.89-1.02
				c-0.65,0.6-1.32,1.2-1.99,1.81C1011.89,357.96,1012.27,357.69,1012.63,357.43z M1010.63,359.72c0.49-0.56,0.96-1.1,1.44-1.65
				c-0.6,0.43-1.19,0.86-1.81,1.3c-0.53,0.48-1.08,0.98-1.62,1.47C1009.31,360.46,1009.97,360.09,1010.63,359.72z M1016.85,353.1
				l0.76-1.12c-0.57,0.66-1.16,1.33-1.75,2.02L1016.85,353.1z M616.13,397.88c-1.79-0.92-3.6-1.86-5.4-2.8
				c-1.37-0.45-2.74-0.9-4.12-1.36c1.71,0.84,3.43,1.68,5.12,2.49C613.2,396.77,614.68,397.34,616.13,397.88z M621.97,400.87
				c-1.48-0.75-2.97-1.51-4.47-2.28c-1.22-0.45-2.43-0.89-3.65-1.35c1.55,0.74,3.07,1.43,4.62,2.15
				C619.63,399.88,620.81,400.39,621.97,400.87z M626.54,403.14c-0.74-0.37-1.49-0.74-2.23-1.11c-0.41-0.17-0.82-0.33-1.23-0.5
				C624.23,402.07,625.39,402.62,626.54,403.14z M1015.12,355.63c0.42-0.62,0.84-1.22,1.25-1.83l-1.05,0.96l-0.55,0.51
				c-0.48,0.55-0.95,1.09-1.43,1.65L1015.12,355.63z M1013.37,358.18c0.48-0.69,0.95-1.39,1.42-2.07c-0.67,0.48-1.34,0.97-2.03,1.46
				c-0.54,0.61-1.07,1.23-1.62,1.86C1011.9,359.01,1012.64,358.59,1013.37,358.18z M1020.54,348.33c0.21-0.4,0.43-0.8,0.64-1.19
				c-0.49,0.71-0.99,1.43-1.49,2.16C1019.97,348.98,1020.26,348.66,1020.54,348.33z M1019.07,351.08c0.36-0.67,0.71-1.33,1.06-1.98
				c-0.46,0.53-0.93,1.06-1.4,1.61c-0.41,0.6-0.83,1.21-1.25,1.83C1018.02,352.04,1018.55,351.56,1019.07,351.08z M1017.59,353.85
				l0.77-1.45l0.43-0.8c-0.59,0.54-1.19,1.08-1.8,1.64l-0.05,0.08c-0.44,0.65-0.9,1.32-1.36,1.99l0.18-0.13L1017.59,353.85z
				 M1016.11,356.63c0.43-0.81,0.86-1.6,1.28-2.39l-1.5,1.08l-0.62,0.45c-0.49,0.72-0.99,1.45-1.5,2.18
				C1014.56,357.51,1015.34,357.06,1016.11,356.63z M621.93,400.01c-1.91-1.04-3.86-2.12-5.81-3.2c-1.43-0.45-2.85-0.9-4.29-1.37
				c1.92,1,3.84,2.01,5.74,2.98C619.03,398.95,620.48,399.48,621.93,400.01z M628.57,403.56c-1.82-0.97-3.63-1.93-5.47-2.91
				c-1.39-0.5-2.78-1.01-4.17-1.52c1.83,0.93,3.64,1.83,5.45,2.74C625.79,402.43,627.18,402.99,628.57,403.56z M634.21,406.56
				c-1.31-0.69-2.64-1.4-3.97-2.12c-1.17-0.47-2.35-0.95-3.52-1.43c1.43,0.71,2.86,1.43,4.27,2.12
				C632.07,405.62,633.14,406.09,634.21,406.56z M638.26,408.66c-0.44-0.23-0.87-0.45-1.31-0.67c-0.54-0.24-1.08-0.48-1.62-0.72
				C636.32,407.75,637.28,408.19,638.26,408.66z M1023.72,343.18c0.17-0.42,0.35-0.83,0.52-1.23c-0.41,0.74-0.82,1.49-1.24,2.26
				C1023.23,343.86,1023.48,343.52,1023.72,343.18z M1022.5,346.11c0.29-0.71,0.58-1.42,0.87-2.11c-0.4,0.56-0.8,1.14-1.21,1.72
				c-0.35,0.65-0.7,1.3-1.06,1.97C1021.58,347.15,1022.04,346.63,1022.5,346.11z M1021.28,349.08c0.33-0.82,0.66-1.62,0.99-2.42
				c-0.52,0.58-1.04,1.18-1.58,1.79c-0.4,0.74-0.8,1.49-1.2,2.24C1020.1,350.14,1020.7,349.61,1021.28,349.08z M1020.06,352.07
				l0.21-0.51l0.84-2.06c-0.62,0.56-1.25,1.13-1.89,1.71l-0.69,1.29l-0.59,1.1C1018.67,353.07,1019.37,352.57,1020.06,352.07z
				 M1018.83,355.09c0.37-0.9,0.73-1.79,1.09-2.67c-0.71,0.51-1.44,1.03-2.18,1.57c-0.43,0.81-0.87,1.64-1.32,2.47l1.74-0.98
				L1018.83,355.09z M627.98,402.19c-2.13-1.21-4.26-2.43-6.41-3.67c-1.49-0.46-2.99-0.94-4.48-1.41c2.04,1.13,4.09,2.27,6.1,3.35
				C624.79,401.04,626.39,401.63,627.98,402.19z M634.94,406.11c-2.01-1.12-4.02-2.25-6.05-3.4c-1.48-0.52-2.97-1.05-4.46-1.58
				c1.97,1.06,3.93,2.1,5.89,3.14C631.86,404.88,633.41,405.51,634.94,406.11z M641.55,409.79c-1.78-0.98-3.59-1.99-5.39-3
				c-1.39-0.54-2.77-1.08-4.17-1.63c1.69,0.9,3.37,1.78,5.04,2.65C638.54,408.47,640.06,409.15,641.55,409.79z M647.8,413.19
				c-1.57-0.85-3.12-1.67-4.69-2.53c-1.04-0.44-2.06-0.87-3.11-1.32c1.26,0.65,2.53,1.3,3.78,1.94
				C645.12,411.91,646.48,412.58,647.8,413.19z M651.32,415.09c-0.32-0.17-0.65-0.35-0.98-0.53c-0.33-0.15-0.65-0.29-0.98-0.44
				C650.02,414.45,650.67,414.76,651.32,415.09z M1026.41,337.72c0.14-0.43,0.27-0.85,0.41-1.26c-0.34,0.75-0.67,1.52-1.01,2.31
				C1026,338.42,1026.2,338.07,1026.41,337.72z M1025.43,340.8c0.23-0.75,0.47-1.48,0.7-2.21c-0.34,0.59-0.68,1.18-1.02,1.79
				c-0.29,0.68-0.58,1.38-0.88,2.08C1024.63,341.9,1025.03,341.34,1025.43,340.8z M1024.46,343.93c0.27-0.86,0.53-1.71,0.79-2.55
				c-0.45,0.62-0.9,1.25-1.36,1.9c-0.33,0.78-0.66,1.58-0.99,2.39C1023.43,345.08,1023.95,344.5,1024.46,343.93z M1023.5,347.1
				c0.28-0.93,0.56-1.84,0.83-2.73c-0.54,0.6-1.1,1.22-1.66,1.85c-0.35,0.84-0.7,1.69-1.05,2.56
				C1022.26,348.21,1022.88,347.65,1023.5,347.1z M1022.52,350.31c0.29-0.96,0.58-1.91,0.86-2.85c-0.63,0.56-1.28,1.14-1.94,1.73
				c-0.33,0.8-0.66,1.61-1,2.44l-0.09,0.23C1021.1,351.33,1021.82,350.81,1022.52,350.31z M1021.55,353.55
				c0.29-0.96,0.58-1.92,0.86-2.86l0.02-0.07c-0.72,0.51-1.46,1.04-2.21,1.58c-0.37,0.9-0.74,1.81-1.12,2.73
				C1019.94,354.46,1020.75,354,1021.55,353.55z M633.63,404.14c-2.24-1.33-4.49-2.67-6.75-4.03c-1.5-0.45-2.99-0.88-4.49-1.34
				c2.2,1.27,4.4,2.53,6.57,3.76C630.53,403.08,632.08,403.6,633.63,404.14z M640.82,408.37c-2.09-1.22-4.22-2.48-6.34-3.74
				c-1.53-0.52-3.07-1.05-4.61-1.59c2.14,1.21,4.24,2.38,6.36,3.56C637.77,407.21,639.29,407.79,640.82,408.37z M647.89,412.45
				c-2.02-1.16-4.02-2.3-6.05-3.48c-1.46-0.55-2.92-1.12-4.39-1.69c1.92,1.07,3.84,2.15,5.72,3.18
				C644.76,411.15,646.32,411.79,647.89,412.45z M654.41,416.18c-1.7-0.96-3.42-1.95-5.14-2.94c-1.44-0.6-2.88-1.2-4.33-1.82
				c1.82,0.99,3.64,1.97,5.45,2.94C651.75,414.99,653.07,415.58,654.41,416.18z M660.88,419.8c-1.48-0.82-2.97-1.66-4.46-2.49
				c-1.18-0.53-2.37-1.07-3.57-1.61c1.47,0.79,2.93,1.56,4.38,2.32C658.46,418.61,659.68,419.21,660.88,419.8z M664.28,421.69
				c-0.25-0.14-0.51-0.29-0.77-0.43c-0.2-0.1-0.41-0.19-0.61-0.29C663.36,421.21,663.82,421.46,664.28,421.69z M1028.65,332.04
				c0.1-0.43,0.21-0.85,0.31-1.28c-0.27,0.76-0.54,1.53-0.82,2.33C1028.31,332.74,1028.48,332.39,1028.65,332.04z M1027.9,335.22
				c0.18-0.77,0.36-1.53,0.54-2.28c-0.28,0.6-0.57,1.21-0.86,1.84c-0.24,0.71-0.47,1.43-0.71,2.17
				C1027.21,336.36,1027.56,335.78,1027.9,335.22z M1027.16,338.48c0.2-0.9,0.4-1.78,0.6-2.65c-0.39,0.64-0.78,1.3-1.17,1.98
				c-0.26,0.82-0.53,1.66-0.8,2.51C1026.25,339.68,1026.71,339.07,1027.16,338.48z M1026.43,341.79c0.21-0.97,0.42-1.92,0.63-2.86
				c-0.48,0.63-0.96,1.28-1.45,1.95c-0.28,0.89-0.56,1.79-0.84,2.7C1025.34,342.97,1025.89,342.37,1026.43,341.79z M1025.71,345.16
				c0.22-1.01,0.43-2.01,0.64-3c-0.56,0.6-1.13,1.22-1.71,1.86c-0.28,0.93-0.57,1.87-0.86,2.83
				C1024.43,346.27,1025.08,345.71,1025.71,345.16z M1024.99,348.57c0.22-1.04,0.44-2.08,0.66-3.09c-0.64,0.56-1.3,1.14-1.97,1.73
				c-0.29,0.96-0.58,1.93-0.88,2.91C1023.54,349.59,1024.27,349.08,1024.99,348.57z M1024.26,352.02l0.47-2.21l0.2-0.95
				c-0.73,0.51-1.47,1.04-2.23,1.58l-0.1,0.32c-0.26,0.88-0.53,1.76-0.8,2.66C1022.63,352.93,1023.46,352.47,1024.26,352.02z
				 M639.33,406.08c-2.35-1.44-4.71-2.9-7.09-4.38c-1.53-0.44-3.08-0.91-4.62-1.37c2.32,1.39,4.63,2.76,6.93,4.12
				C636.15,404.99,637.75,405.55,639.33,406.08z M646.89,410.68c-2.28-1.38-4.55-2.76-6.86-4.17c-1.54-0.51-3.09-1.04-4.64-1.56
				c2.18,1.29,4.37,2.59,6.51,3.84C643.57,409.42,645.24,410.07,646.89,410.68z M654.18,415.08c-2.12-1.27-4.28-2.57-6.43-3.87
				c-1.57-0.58-3.16-1.18-4.74-1.78c2.12,1.23,4.23,2.43,6.33,3.64C650.95,413.73,652.58,414.43,654.18,415.08z M661.44,419.36
				c-2.05-1.2-4.1-2.41-6.16-3.63c-1.51-0.61-3.04-1.25-4.56-1.88c1.94,1.1,3.86,2.19,5.77,3.27
				C658.14,417.86,659.81,418.64,661.44,419.36z M668.05,423.21c-1.75-1.01-3.5-2.03-5.27-3.06c-1.42-0.62-2.85-1.27-4.28-1.9
				c1.69,0.95,3.39,1.9,5.06,2.83C665.06,421.79,666.56,422.51,668.05,423.21z M674.11,426.68c-1.28-0.73-2.57-1.48-3.86-2.22
				c-1.24-0.58-2.5-1.19-3.75-1.78c1.44,0.78,2.86,1.55,4.29,2.33C671.9,425.57,673.01,426.13,674.11,426.68z M677.9,428.84
				c-0.14-0.08-0.28-0.16-0.42-0.24c-0.21-0.11-0.43-0.22-0.65-0.33C677.19,428.47,677.54,428.64,677.9,428.84z M1029.94,329.47
				c0.13-0.79,0.26-1.57,0.39-2.33c-0.24,0.6-0.48,1.22-0.72,1.86c-0.19,0.72-0.37,1.46-0.56,2.22
				C1029.35,330.62,1029.64,330.03,1029.94,329.47z M1029.41,332.81c0.14-0.93,0.28-1.84,0.43-2.73c-0.33,0.65-0.67,1.33-1,2.02
				c-0.21,0.85-0.41,1.71-0.62,2.6C1028.62,334.05,1029.02,333.41,1029.41,332.81z M1028.91,336.23c0.14-1,0.29-1.99,0.43-2.95
				c-0.42,0.65-0.84,1.32-1.26,2.02c-0.21,0.92-0.42,1.86-0.64,2.81C1027.94,337.46,1028.43,336.83,1028.91,336.23z M1028.41,339.72
				c0.15-1.05,0.29-2.09,0.44-3.11c-0.5,0.62-1,1.27-1.51,1.95c-0.22,0.97-0.43,1.96-0.65,2.96
				C1027.28,340.9,1027.85,340.3,1028.41,339.72z M1027.93,343.27c0.15-1.09,0.29-2.17,0.44-3.22c-0.57,0.59-1.16,1.2-1.76,1.84
				c-0.22,1-0.44,2.03-0.66,3.06C1026.63,344.37,1027.29,343.81,1027.93,343.27z M1027.45,346.87c0.15-1.12,0.3-2.22,0.44-3.31
				c-0.65,0.55-1.32,1.12-2,1.71c-0.22,1.03-0.44,2.08-0.67,3.14C1025.98,347.88,1026.73,347.36,1027.45,346.87z M1026.96,350.51
				l0.21-1.61l0.24-1.78c-0.73,0.5-1.48,1.02-2.25,1.56l-0.24,1.16l-0.43,2.05C1025.33,351.42,1026.16,350.95,1026.96,350.51z
				 M644.78,407.84c-2.42-1.54-4.87-3.11-7.33-4.69c-1.51-0.42-3.02-0.83-4.54-1.26c2.41,1.5,4.81,2.98,7.19,4.44
				C641.67,406.85,643.22,407.34,644.78,407.84z M652.56,412.73c-2.35-1.47-4.72-2.96-7.1-4.47c-1.55-0.5-3.09-0.99-4.65-1.5
				c2.36,1.44,4.69,2.85,7.02,4.26C649.41,411.6,650.98,412.16,652.56,412.73z M660.18,417.46c-2.27-1.4-4.54-2.8-6.84-4.24
				c-1.55-0.56-3.09-1.11-4.65-1.68c2.23,1.35,4.46,2.69,6.66,4C656.97,416.2,658.57,416.82,660.18,417.46z M667.51,421.96
				c-2.1-1.28-4.24-2.59-6.37-3.91c-1.56-0.62-3.12-1.23-4.7-1.86c2.14,1.27,4.28,2.53,6.4,3.77
				C664.42,420.65,665.96,421.29,667.51,421.96z M674.82,426.36c-2.01-1.2-4.04-2.42-6.07-3.65c-1.52-0.65-3.04-1.29-4.57-1.96
				c2.06,1.2,4.1,2.37,6.14,3.54C671.83,424.99,673.32,425.67,674.82,426.36z M681.69,430.44c-1.8-1.06-3.59-2.11-5.4-3.19
				c-1.34-0.61-2.66-1.2-4.01-1.83c1.77,1.01,3.53,2.02,5.27,3.01C678.95,429.12,680.31,429.76,681.69,430.44z M687.85,434.05
				c-1.33-0.77-2.68-1.58-4.03-2.37c-1.1-0.53-2.2-1.06-3.3-1.61c1.35,0.75,2.7,1.52,4.04,2.26
				C685.65,432.91,686.76,433.49,687.85,434.05z M691.39,436.09c-0.11-0.06-0.22-0.12-0.33-0.19l-0.28-0.14
				C690.99,435.87,691.19,435.98,691.39,436.09z M1029.92,345.21c0.08-1.18,0.15-2.35,0.23-3.5c-0.66,0.53-1.34,1.08-2.03,1.66
				c-0.15,1.1-0.3,2.22-0.45,3.35C1028.44,346.2,1029.19,345.69,1029.92,345.21z M1029.67,349.03l0.07-1.04l0.16-2.53
				c-0.73,0.48-1.49,0.99-2.27,1.52l-0.26,1.95l-0.2,1.46C1028.04,349.92,1028.87,349.46,1029.67,349.03z M650.36,409.63
				c-2.54-1.66-5.09-3.33-7.66-5.02c-1.53-0.41-3.08-0.86-4.61-1.28c2.49,1.6,4.98,3.19,7.44,4.75
				C647.14,408.59,648.76,409.13,650.36,409.63z M658.34,414.81c-2.44-1.57-4.92-3.19-7.4-4.8c-1.57-0.49-3.16-1.01-4.74-1.51
				c2.42,1.53,4.83,3.05,7.21,4.54C655.05,413.63,656.71,414.25,658.34,414.81z M666.23,419.86c-2.38-1.51-4.78-3.05-7.19-4.6
				c-1.6-0.56-3.23-1.15-4.84-1.73c2.36,1.47,4.69,2.9,7.02,4.34C662.88,418.53,664.58,419.22,666.23,419.86z M673.94,424.71
				c-2.3-1.44-4.59-2.88-6.92-4.35c-1.6-0.61-3.23-1.27-4.84-1.9c2.22,1.37,4.44,2.72,6.63,4.05
				C670.52,423.24,672.25,424.01,673.94,424.71z M681.37,429.34c-2.12-1.31-4.26-2.64-6.4-3.99c-1.62-0.67-3.28-1.4-4.92-2.1
				c2.11,1.28,4.23,2.56,6.31,3.8C678.03,427.82,679.71,428.6,681.37,429.34z M688.73,433.85c-1.99-1.21-3.99-2.44-6-3.67
				c-1.61-0.72-3.26-1.49-4.89-2.23c2.03,1.21,4.03,2.37,6.05,3.55C685.5,432.29,687.13,433.09,688.73,433.85z M695.61,438.01
				c-1.8-1.08-3.59-2.15-5.41-3.25c-1.39-0.66-2.79-1.33-4.2-2.01c1.72,1.01,3.43,2,5.13,2.98
				C692.64,436.49,694.13,437.26,695.61,438.01z M701.46,441.51c-1.17-0.69-2.36-1.41-3.54-2.12c-1.12-0.56-2.27-1.15-3.41-1.72
				c1.33,0.76,2.66,1.53,3.98,2.28C699.49,440.48,700.47,440.98,701.46,441.51z M705.2,443.7l-0.04-0.02l-0.03-0.02L705.2,443.7z
				 M655.66,411.23c-2.62-1.75-5.24-3.51-7.9-5.31c-1.5-0.39-2.98-0.75-4.48-1.16c2.6,1.71,5.17,3.39,7.73,5.06
				C652.58,410.31,654.11,410.76,655.66,411.23z M663.88,416.69c-2.54-1.68-5.09-3.37-7.67-5.1c-1.54-0.46-3.07-0.91-4.61-1.39
				c2.52,1.64,5.02,3.27,7.5,4.86C660.71,415.63,662.29,416.15,663.88,416.69z M671.9,421.98c-2.43-1.59-4.9-3.22-7.37-4.85
				c-1.58-0.53-3.14-1.05-4.73-1.61c2.44,1.57,4.88,3.13,7.29,4.66C668.71,420.8,670.3,421.37,671.9,421.98z M679.84,427.11
				c-2.38-1.53-4.76-3.07-7.17-4.64c-1.6-0.59-3.18-1.18-4.79-1.79c2.4,1.52,4.78,3,7.15,4.49
				C676.65,425.84,678.23,426.46,679.84,427.11z M687.65,432.11c-2.3-1.46-4.61-2.93-6.94-4.43c-1.58-0.64-3.13-1.25-4.72-1.91
				c2.28,1.43,4.55,2.84,6.81,4.22C684.43,430.72,686.03,431.4,687.65,432.11z M695.17,436.86c-2.13-1.34-4.29-2.7-6.45-4.08
				c-1.57-0.68-3.13-1.35-4.72-2.05c2.1,1.29,4.2,2.59,6.27,3.84C691.92,435.35,693.54,436.11,695.17,436.86z M702.51,441.43
				c-1.97-1.22-3.96-2.46-5.95-3.7c-1.57-0.73-3.14-1.46-4.73-2.21c2.07,1.25,4.11,2.47,6.16,3.69
				C699.51,439.96,701,440.69,702.51,441.43z M709.62,445.79c-1.82-1.11-3.63-2.21-5.47-3.34c-1.38-0.68-2.77-1.35-4.16-2.05
				c1.76,1.05,3.5,2.07,5.24,3.09C706.7,444.27,708.17,445.04,709.62,445.79z M715.43,449.32c-1.19-0.71-2.4-1.46-3.6-2.19
				c-1.01-0.52-2-1.02-3.02-1.54c1.11,0.65,2.23,1.31,3.33,1.95C713.25,448.14,714.34,448.73,715.43,449.32z M661.02,412.84
				c-2.68-1.83-5.38-3.7-8.1-5.59c-1.52-0.38-3.07-0.79-4.6-1.19c2.67,1.81,5.32,3.58,7.96,5.35
				C657.86,411.89,659.46,412.39,661.02,412.84z M669.49,418.6c-2.64-1.79-5.27-3.57-7.95-5.4c-1.56-0.45-3.14-0.95-4.71-1.41
				c2.61,1.74,5.19,3.45,7.76,5.15C666.23,417.49,667.88,418.07,669.49,418.6z M677.76,424.17c-2.55-1.7-5.11-3.43-7.69-5.17
				c-1.6-0.52-3.22-1.09-4.83-1.63c2.51,1.66,5.01,3.31,7.49,4.92C674.41,422.91,676.11,423.56,677.76,424.17z M685.82,429.53
				c-2.42-1.6-4.89-3.25-7.35-4.9c-1.64-0.59-3.32-1.24-4.97-1.85c2.44,1.59,4.87,3.16,7.27,4.71
				C682.45,428.17,684.15,428.88,685.82,429.53z M693.93,434.84c-2.41-1.57-4.82-3.15-7.26-4.75c-1.65-0.65-3.35-1.36-5.02-2.03
				c2.4,1.54,4.77,3.04,7.14,4.54C690.49,433.35,692.23,434.12,693.93,434.84z M701.68,439.86c-2.28-1.47-4.56-2.94-6.86-4.44
				c-1.64-0.69-3.3-1.43-4.96-2.14c2.27,1.44,4.53,2.86,6.78,4.27C698.32,438.33,700,439.1,701.68,439.86z M709.26,444.72
				c-2.14-1.36-4.32-2.76-6.49-4.16c-1.58-0.72-3.16-1.42-4.76-2.16c2.08,1.3,4.16,2.6,6.21,3.86
				C705.91,443.09,707.6,443.92,709.26,444.72z M716.68,449.39c-2.01-1.26-4.03-2.53-6.05-3.81c-1.55-0.74-3.09-1.48-4.66-2.24
				c1.99,1.22,3.96,2.41,5.93,3.61C713.5,447.77,715.1,448.59,716.68,449.39z M723.64,453.72c-1.72-1.06-3.43-2.11-5.17-3.2
				c-1.44-0.72-2.91-1.49-4.37-2.23c1.84,1.11,3.66,2.2,5.49,3.29C720.95,452.31,722.29,453,723.64,453.72z M729.64,457.42
				c-1.19-0.73-2.4-1.48-3.6-2.22c-1.04-0.55-2.09-1.1-3.14-1.65c1.1,0.66,2.21,1.32,3.3,1.96
				C727.35,456.15,728.5,456.78,729.64,457.42z M666.22,414.3c-2.74-1.91-5.51-3.87-8.28-5.84c-1.49-0.36-2.97-0.7-4.47-1.07
				c2.73,1.9,5.46,3.78,8.15,5.62C663.16,413.46,664.68,413.87,666.22,414.3z M674.84,420.29c-2.69-1.86-5.4-3.74-8.12-5.65
				c-1.53-0.43-3.05-0.84-4.6-1.28c2.7,1.85,5.36,3.64,8.03,5.45C671.72,419.32,673.27,419.8,674.84,420.29z M683.32,426.13
				c-2.63-1.8-5.27-3.61-7.94-5.45c-1.56-0.49-3.1-0.97-4.67-1.48c2.63,1.78,5.23,3.52,7.82,5.26
				C680.15,425.03,681.73,425.56,683.32,426.13z M691.64,431.78c-2.54-1.72-5.11-3.47-7.69-5.23c-1.58-0.56-3.15-1.09-4.75-1.66
				c2.53,1.69,5.05,3.37,7.54,5.01C688.38,430.55,690,431.16,691.64,431.78z M699.82,437.29c-2.46-1.65-4.96-3.33-7.46-5.02
				c-1.6-0.61-3.18-1.19-4.8-1.83c2.46,1.62,4.9,3.21,7.32,4.79C696.54,435.94,698.17,436.61,699.82,437.29z M707.96,442.68
				c-2.43-1.6-4.86-3.2-7.32-4.84c-1.62-0.67-3.24-1.33-4.88-2.02c2.38,1.55,4.73,3.06,7.08,4.57
				C704.56,441.16,706.27,441.93,707.96,442.68z M715.81,447.82c-2.27-1.48-4.55-2.97-6.85-4.48c-1.66-0.73-3.34-1.5-5.02-2.25
				c2.27,1.46,4.53,2.9,6.76,4.32C712.41,446.22,714.12,447.03,715.81,447.82z M723.35,452.71c-2.09-1.34-4.21-2.72-6.32-4.1
				c-1.64-0.76-3.3-1.56-4.95-2.35c2.17,1.37,4.33,2.74,6.47,4.07C720.16,451.15,721.75,451.92,723.35,452.71z M730.97,457.56
				c-2.04-1.29-4.09-2.59-6.15-3.91c-1.54-0.76-3.08-1.51-4.64-2.29c1.99,1.24,3.96,2.44,5.93,3.66
				C727.73,455.87,729.37,456.74,730.97,457.56z M737.85,461.9c-1.72-1.08-3.44-2.15-5.19-3.26c-1.38-0.71-2.77-1.43-4.17-2.15
				c1.79,1.1,3.56,2.17,5.34,3.24C735.19,460.47,736.52,461.18,737.85,461.9z M744.01,465.73c-1.18-0.73-2.39-1.48-3.58-2.23
				c-1.06-0.57-2.12-1.14-3.19-1.72c1.09,0.66,2.2,1.33,3.28,1.98C741.68,464.42,742.85,465.08,744.01,465.73z M671.47,415.77
				c-2.82-2.01-5.67-4.05-8.52-6.11c-1.5-0.35-3-0.71-4.51-1.07c2.8,1.98,5.59,3.95,8.34,5.87
				C668.35,414.9,669.92,415.35,671.47,415.77z M680.25,422c-2.74-1.93-5.52-3.92-8.3-5.9c-1.55-0.42-3.11-0.87-4.67-1.3
				c2.75,1.92,5.47,3.82,8.18,5.69C677.05,420.99,678.66,421.52,680.25,422z M688.93,428.09c-2.71-1.89-5.41-3.78-8.16-5.71
				c-1.58-0.48-3.19-1.01-4.78-1.51c2.7,1.86,5.36,3.68,8.02,5.5C685.65,426.94,687.31,427.53,688.93,428.09z M697.43,433.99
				c-2.62-1.81-5.25-3.63-7.91-5.49c-1.61-0.55-3.26-1.14-4.89-1.71c2.61,1.78,5.21,3.55,7.78,5.29
				C694.1,432.72,695.78,433.37,697.43,433.99z M705.83,439.76c-2.54-1.74-5.13-3.52-7.71-5.3c-1.64-0.61-3.32-1.26-4.97-1.89
				c2.53,1.71,5.07,3.42,7.56,5.09C702.42,438.36,704.14,439.08,705.83,439.76z M714.03,445.32c-2.47-1.67-4.96-3.35-7.46-5.05
				c-1.66-0.67-3.34-1.36-5.02-2.04c2.51,1.67,5,3.31,7.48,4.94C710.72,443.9,712.37,444.6,714.03,445.32z M722.14,450.75
				c-2.41-1.6-4.82-3.21-7.26-4.86c-1.63-0.7-3.24-1.38-4.89-2.1c2.39,1.57,4.75,3.11,7.11,4.64
				C718.79,449.23,720.46,449.98,722.14,450.75z M730.06,456c-2.28-1.5-4.6-3.04-6.91-4.58c-1.62-0.74-3.23-1.46-4.87-2.22
				c2.22,1.44,4.43,2.88,6.62,4.28C726.62,454.33,728.35,455.17,730.06,456z M737.73,461.02c-2.14-1.39-4.31-2.81-6.48-4.24
				c-1.61-0.77-3.23-1.55-4.86-2.35c2.13,1.36,4.25,2.71,6.35,4.04C734.41,459.33,736.08,460.18,737.73,461.02z M745.25,465.86
				c-2.01-1.29-4.01-2.56-6.04-3.88c-1.58-0.79-3.18-1.62-4.78-2.44c2.04,1.28,4.05,2.53,6.07,3.79
				C742.1,464.18,743.68,465.03,745.25,465.86z M752.17,470.27c-1.69-1.07-3.4-2.16-5.11-3.25c-1.34-0.7-2.66-1.38-4.01-2.1
				c1.7,1.06,3.39,2.09,5.07,3.12C749.48,468.8,750.82,469.53,752.17,470.27z M758.47,474.23c-1.18-0.74-2.38-1.5-3.57-2.25
				c-1.05-0.57-2.12-1.16-3.17-1.75c1.1,0.67,2.21,1.36,3.31,2.02C756.19,472.92,757.33,473.58,758.47,474.23z M676.57,417.11
				c-2.88-2.09-5.78-4.21-8.7-6.34c-1.48-0.33-2.95-0.65-4.43-0.99c2.87,2.07,5.74,4.12,8.58,6.15
				C673.55,416.33,675.05,416.71,676.57,417.11z M685.51,423.57c-2.8-2.01-5.65-4.08-8.5-6.15c-1.51-0.39-3-0.76-4.52-1.17
				c2.8,2,5.6,4,8.35,5.94C682.41,422.67,683.95,423.11,685.51,423.57z M694.35,429.89c-2.76-1.96-5.55-3.95-8.35-5.97
				c-1.54-0.46-3.07-0.88-4.62-1.36c2.76,1.95,5.49,3.85,8.22,5.75C691.19,428.86,692.77,429.37,694.35,429.89z M703.07,436.05
				c-2.71-1.91-5.43-3.83-8.19-5.78c-1.57-0.52-3.11-1-4.7-1.53c2.68,1.87,5.35,3.71,7.99,5.54
				C699.82,434.88,701.45,435.46,703.07,436.05z M711.63,442.05c-2.63-1.83-5.29-3.69-7.95-5.57c-1.6-0.58-3.19-1.13-4.81-1.73
				c2.61,1.8,5.21,3.59,7.77,5.34C708.31,440.75,709.97,441.4,711.63,442.05z M720.11,447.93c-2.57-1.77-5.17-3.58-7.78-5.39
				c-1.64-0.64-3.29-1.29-4.95-1.95c2.54,1.73,5.07,3.45,7.57,5.13C716.67,446.45,718.41,447.21,720.11,447.93z M728.43,453.6
				c-2.52-1.71-5.03-3.42-7.58-5.17c-1.67-0.7-3.37-1.43-5.05-2.15c2.5,1.68,4.96,3.31,7.42,4.95
				C724.96,452.03,726.71,452.84,728.43,453.6z M736.52,459.08c-2.39-1.61-4.8-3.24-7.23-4.89c-1.67-0.74-3.37-1.51-5.07-2.28
				c2.39,1.58,4.76,3.15,7.11,4.69C733.06,457.44,734.8,458.27,736.52,459.08z M744.33,464.31c-2.22-1.47-4.47-2.99-6.72-4.5
				c-1.68-0.79-3.39-1.61-5.09-2.42c2.27,1.49,4.54,2.98,6.77,4.43C740.99,462.66,742.65,463.48,744.33,464.31z M752.26,469.53
				c-2.2-1.44-4.42-2.9-6.65-4.37c-1.6-0.79-3.19-1.56-4.81-2.37c2.12,1.37,4.24,2.72,6.34,4.07
				C748.85,467.74,750.57,468.65,752.26,469.53z M759.66,474.35c-1.98-1.28-3.95-2.56-5.95-3.86c-1.57-0.81-3.18-1.65-4.77-2.48
				c2.03,1.29,4.04,2.56,6.05,3.82C756.56,472.68,758.11,473.51,759.66,474.35z M766.52,478.78c-1.63-1.04-3.3-2.12-4.95-3.2
				c-1.35-0.72-2.68-1.42-4.04-2.16c1.67,1.05,3.34,2.09,4.99,3.12C763.87,477.3,765.19,478.03,766.52,478.78z M772.99,482.87
				c-1.19-0.75-2.39-1.51-3.58-2.27c-1.02-0.56-2.05-1.15-3.08-1.72c1.14,0.7,2.28,1.41,3.41,2.1
				C770.83,481.62,771.92,482.25,772.99,482.87z M681.67,418.42c-2.95-2.17-5.91-4.36-8.9-6.59c-1.47-0.31-2.95-0.64-4.43-0.96
				c2.93,2.15,5.85,4.27,8.74,6.37C678.61,417.64,680.15,418.04,681.67,418.42z M690.79,425.12c-2.87-2.1-5.78-4.24-8.7-6.39
				c-1.52-0.38-3.05-0.78-4.58-1.18c2.87,2.08,5.73,4.16,8.55,6.18C687.64,424.2,689.22,424.67,690.79,425.12z M699.76,431.65
				c-2.81-2.03-5.65-4.1-8.5-6.19c-1.56-0.44-3.13-0.92-4.7-1.38c2.82,2.02,5.62,4.03,8.4,6
				C696.56,430.61,698.17,431.14,699.76,431.65z M708.64,438.03c-2.77-1.99-5.55-3.97-8.36-6c-1.58-0.5-3.19-1.04-4.79-1.56
				c2.77,1.97,5.51,3.9,8.25,5.82C705.38,436.88,707.01,437.46,708.64,438.03z M717.41,444.28c-2.71-1.92-5.44-3.87-8.19-5.84
				c-1.61-0.56-3.25-1.15-4.88-1.73c2.7,1.9,5.39,3.78,8.06,5.64C714.07,443,715.75,443.65,717.41,444.28z M725.94,450.31
				c-2.61-1.83-5.26-3.71-7.91-5.59c-1.64-0.62-3.28-1.25-4.93-1.89c2.62,1.82,5.24,3.65,7.82,5.42
				C722.61,448.96,724.27,449.63,725.94,450.31z M734.45,456.24c-2.58-1.79-5.17-3.59-7.78-5.42c-1.66-0.67-3.31-1.35-4.99-2.04
				c2.58,1.77,5.13,3.5,7.68,5.23C731.07,454.77,732.76,455.5,734.45,456.24z M742.77,461.97c-2.49-1.71-4.98-3.42-7.51-5.17
				c-1.67-0.72-3.35-1.46-5.04-2.2c2.51,1.7,5,3.38,7.47,5.04C739.4,460.43,741.07,461.19,742.77,461.97z M750.93,467.54
				c-2.39-1.62-4.81-3.28-7.24-4.94c-1.66-0.76-3.31-1.5-4.98-2.28c2.34,1.57,4.68,3.14,6.98,4.66
				C747.44,465.84,749.2,466.71,750.93,467.54z M758.86,472.89c-2.27-1.52-4.57-3.07-6.87-4.63c-1.66-0.8-3.34-1.61-5.02-2.44
				c2.29,1.51,4.56,3.02,6.82,4.49C755.49,471.19,757.18,472.03,758.86,472.89z M766.78,478.15c-2.21-1.46-4.42-2.92-6.65-4.41
				c-1.64-0.82-3.29-1.66-4.94-2.51c2.18,1.42,4.32,2.79,6.47,4.18C763.37,476.33,765.09,477.26,766.78,478.15z M774.14,482.99
				c-1.95-1.27-3.91-2.56-5.88-3.87c-1.56-0.81-3.12-1.64-4.7-2.48c2,1.28,3.98,2.55,5.95,3.8
				C771.06,481.31,772.6,482.15,774.14,482.99z M781.16,487.55c-1.66-1.07-3.34-2.17-5.02-3.26c-1.34-0.73-2.66-1.44-4.01-2.18
				c1.62,1.03,3.25,2.07,4.85,3.07C778.39,485.99,779.77,486.76,781.16,487.55z M787.53,491.63c-1.21-0.77-2.41-1.53-3.63-2.31
				c-0.97-0.54-1.95-1.11-2.93-1.66c1.2,0.74,2.41,1.5,3.6,2.23C785.56,490.47,786.54,491.05,787.53,491.63z M686.67,419.64
				c-3-2.25-6.01-4.5-9.05-6.79c-1.46-0.3-2.93-0.6-4.4-0.92c3,2.23,5.98,4.43,8.94,6.62C683.67,418.92,685.17,419.28,686.67,419.64
				z M695.94,426.55c-2.94-2.18-5.9-4.39-8.88-6.62c-1.49-0.36-2.98-0.7-4.48-1.08c2.93,2.16,5.85,4.31,8.75,6.42
				C692.88,425.72,694.41,426.13,695.94,426.55z M705.07,433.31c-2.87-2.11-5.78-4.27-8.69-6.43c-1.52-0.42-3.04-0.82-4.58-1.25
				c2.86,2.09,5.73,4.18,8.55,6.22C701.93,432.34,703.5,432.83,705.07,433.31z M714.14,439.93c-2.85-2.07-5.7-4.15-8.59-6.27
				c-1.56-0.48-3.11-0.94-4.69-1.44c2.83,2.05,5.62,4.04,8.42,6.04C710.91,438.83,712.53,439.38,714.14,439.93z M723.04,446.38
				c-2.78-2-5.57-4.02-8.38-6.07c-1.59-0.54-3.19-1.08-4.8-1.64c2.77,1.98,5.51,3.93,8.24,5.87
				C719.76,445.17,721.4,445.78,723.04,446.38z M731.8,452.67c-2.69-1.92-5.43-3.89-8.16-5.86c-1.63-0.6-3.27-1.21-4.92-1.83
				c2.69,1.9,5.37,3.81,8.02,5.66C728.44,451.33,730.13,452.01,731.8,452.67z M740.43,458.79c-2.64-1.87-5.3-3.75-7.98-5.66
				c-1.65-0.65-3.31-1.31-4.98-1.98c2.64,1.85,5.26,3.67,7.86,5.47C737.04,457.36,738.74,458.08,740.43,458.79z M748.97,464.79
				c-2.6-1.81-5.2-3.63-7.83-5.49c-1.66-0.7-3.32-1.39-5.01-2.12c2.57,1.78,5.1,3.51,7.63,5.25
				C745.51,463.22,747.25,464.02,748.97,464.79z M757.29,470.57c-2.48-1.71-4.99-3.46-7.51-5.22c-1.69-0.75-3.38-1.52-5.09-2.29
				c2.48,1.7,4.94,3.37,7.38,5.03C753.82,468.92,755.56,469.76,757.29,470.57z M765.4,476.15c-2.35-1.61-4.74-3.25-7.13-4.9
				c-1.7-0.8-3.43-1.63-5.15-2.45c2.37,1.61,4.74,3.21,7.08,4.77C761.95,474.45,763.68,475.3,765.4,476.15z M773.49,481.63
				c-2.33-1.57-4.65-3.14-7.01-4.74c-1.65-0.81-3.28-1.61-4.95-2.44c2.29,1.52,4.55,3.02,6.81,4.51
				C770.06,479.86,771.78,480.75,773.49,481.63z M781.34,486.9c-2.16-1.44-4.33-2.89-6.53-4.37c-1.65-0.85-3.34-1.73-5.01-2.6
				c2.16,1.42,4.3,2.81,6.43,4.2C777.93,485.06,779.65,485.99,781.34,486.9z M788.66,491.76c-1.9-1.25-3.85-2.55-5.78-3.84
				c-1.54-0.82-3.09-1.65-4.65-2.49c1.93,1.26,3.86,2.51,5.77,3.73C785.56,490.04,787.11,490.9,788.66,491.76z M795.88,496.47
				c-1.71-1.11-3.43-2.23-5.15-3.36c-1.31-0.72-2.61-1.43-3.93-2.17c1.69,1.08,3.38,2.16,5.05,3.22
				C793.21,494.95,794.53,495.7,795.88,496.47z M802.05,500.47c-1.17-0.75-2.33-1.5-3.51-2.26c-0.97-0.55-1.95-1.12-2.93-1.68
				c1.3,0.82,2.6,1.62,3.9,2.43C800.36,499.47,801.2,499.97,802.05,500.47z M691.62,420.81c-3.06-2.32-6.12-4.64-9.23-7.02
				c-1.45-0.28-2.9-0.56-4.36-0.86c3.06,2.31,6.07,4.56,9.09,6.82C688.63,420.11,690.13,420.47,691.62,420.81z M701.06,427.93
				c-3-2.26-6.01-4.53-9.05-6.83c-1.49-0.34-2.99-0.7-4.49-1.06c2.99,2.24,5.97,4.45,8.92,6.64
				C697.99,427.11,699.53,427.53,701.06,427.93z M710.33,434.89c-2.92-2.18-5.88-4.41-8.85-6.64c-1.52-0.4-3.06-0.82-4.6-1.24
				c2.93,2.17,5.85,4.34,8.74,6.46C707.19,433.95,708.77,434.43,710.33,434.89z M719.51,441.7c-2.89-2.13-5.78-4.28-8.71-6.46
				c-1.56-0.46-3.13-0.94-4.7-1.42c2.9,2.13,5.77,4.22,8.63,6.3C716.33,440.66,717.92,441.18,719.51,441.7z M728.61,448.39
				c-2.85-2.09-5.7-4.18-8.59-6.31c-1.58-0.51-3.17-1.04-4.77-1.58c2.85,2.07,5.66,4.1,8.47,6.13
				C725.35,447.23,726.99,447.81,728.61,448.39z M737.53,454.9c-2.77-2.01-5.57-4.05-8.38-6.11c-1.61-0.57-3.22-1.14-4.84-1.73
				c2.76,1.98,5.5,3.96,8.21,5.89C734.2,453.61,735.87,454.27,737.53,454.9z M746.35,461.27c-2.71-1.94-5.44-3.92-8.19-5.92
				c-1.65-0.63-3.32-1.28-4.98-1.94c2.7,1.92,5.39,3.83,8.05,5.71C742.93,459.84,744.65,460.57,746.35,461.27z M755.01,467.44
				c-2.65-1.88-5.29-3.76-7.98-5.69c-1.68-0.69-3.4-1.42-5.1-2.13c2.67,1.88,5.29,3.71,7.92,5.55
				C751.58,465.94,753.3,466.7,755.01,467.44z M763.48,473.44c-2.55-1.79-5.12-3.61-7.71-5.45c-1.69-0.73-3.4-1.49-5.11-2.25
				c2.59,1.8,5.15,3.58,7.7,5.34C760.08,471.89,761.78,472.66,763.48,473.44z M771.87,479.31c-2.48-1.73-5.01-3.5-7.53-5.28
				c-1.67-0.76-3.33-1.51-5.03-2.3c2.43,1.68,4.86,3.35,7.24,4.98C768.33,477.59,770.12,478.47,771.87,479.31z M780.05,484.96
				c-2.4-1.65-4.8-3.31-7.24-4.99c-1.7-0.81-3.42-1.66-5.14-2.5c2.43,1.65,4.83,3.27,7.22,4.89
				C776.64,483.25,778.34,484.1,780.05,484.96z M788.13,490.49c-2.31-1.57-4.63-3.15-6.98-4.76c-1.66-0.83-3.31-1.65-4.99-2.5
				c2.28,1.53,4.54,3.03,6.79,4.53C784.69,488.68,786.42,489.59,788.13,490.49z M795.93,495.77c-2.11-1.42-4.26-2.88-6.41-4.34
				c-1.66-0.86-3.35-1.77-5.03-2.66c2.12,1.41,4.24,2.81,6.33,4.18C792.53,493.9,794.25,494.85,795.93,495.77z M803.46,500.79
				c-1.96-1.3-3.95-2.63-5.93-3.95c-1.53-0.83-3.08-1.67-4.63-2.52c1.92,1.25,3.83,2.51,5.72,3.73
				C800.25,498.97,801.86,499.89,803.46,500.79z M810.6,505.49c-1.74-1.14-3.46-2.26-5.22-3.42c-1.29-0.72-2.57-1.42-3.87-2.16
				c1.71,1.1,3.42,2.19,5.12,3.28C807.97,503.97,809.28,504.73,810.6,505.49z M816.61,509.43c-1.08-0.7-2.17-1.42-3.26-2.14
				c-1.04-0.6-2.07-1.19-3.12-1.8c1.45,0.92,2.86,1.79,4.3,2.69C815.23,508.61,815.91,509.01,816.61,509.43z M696.53,421.92
				c-3.1-2.38-6.2-4.77-9.35-7.2c-1.45-0.27-2.91-0.56-4.36-0.84c3.12,2.38,6.19,4.71,9.26,7.04
				C693.57,421.26,695.06,421.59,696.53,421.92z M706.11,429.24c-3.05-2.33-6.11-4.67-9.21-7.04c-1.47-0.32-2.95-0.65-4.43-0.99
				c3.05,2.31,6.07,4.59,9.08,6.86C703.08,428.47,704.59,428.86,706.11,429.24z M715.54,436.41c-2.99-2.26-6.01-4.56-9.04-6.87
				c-1.5-0.38-3.01-0.76-4.52-1.16c2.98,2.24,5.96,4.48,8.89,6.67C712.43,435.51,713.99,435.97,715.54,436.41z M724.89,443.44
				c-2.95-2.21-5.92-4.44-8.91-6.71c-1.54-0.44-3.08-0.88-4.64-1.34c2.94,2.19,5.85,4.35,8.75,6.49
				C721.69,442.41,723.3,442.95,724.89,443.44z M734.09,450.31c-2.9-2.15-5.8-4.31-8.74-6.52c-1.57-0.49-3.17-1.01-4.76-1.53
				c2.9,2.14,5.77,4.24,8.63,6.34C730.85,449.18,732.48,449.76,734.09,450.31z M743.14,457.01c-2.82-2.07-5.66-4.18-8.52-6.31
				c-1.61-0.55-3.23-1.13-4.86-1.7c2.84,2.08,5.67,4.14,8.46,6.17C739.88,455.8,741.51,456.4,743.14,457.01z M752.07,463.56
				c-2.76-2.01-5.56-4.07-8.36-6.14c-1.62-0.6-3.22-1.18-4.86-1.8c2.77,2.01,5.53,4,8.25,5.96
				C748.78,462.26,750.42,462.9,752.07,463.56z M760.92,469.97c-2.73-1.97-5.46-3.94-8.23-5.96c-1.64-0.65-3.28-1.29-4.95-1.97
				c2.73,1.96,5.42,3.86,8.11,5.78C757.56,468.55,759.24,469.26,760.92,469.97z M769.63,476.23c-2.66-1.9-5.33-3.82-8.02-5.76
				c-1.66-0.7-3.31-1.38-4.99-2.1c2.62,1.86,5.22,3.69,7.81,5.51C766.16,474.66,767.91,475.46,769.63,476.23z M778.09,482.26
				c-2.54-1.8-5.13-3.65-7.71-5.5c-1.69-0.75-3.39-1.52-5.11-2.3c2.56,1.8,5.11,3.59,7.63,5.34
				C774.65,480.64,776.37,481.45,778.09,482.26z M786.54,488.2c-2.5-1.75-5.01-3.51-7.55-5.3c-1.7-0.79-3.41-1.61-5.14-2.43
				c2.48,1.72,4.94,3.42,7.39,5.1C783.02,486.45,784.79,487.34,786.54,488.2z M794.74,493.9c-2.4-1.66-4.81-3.34-7.25-5.04
				c-1.7-0.83-3.41-1.68-5.14-2.54c2.44,1.68,4.85,3.31,7.26,4.94C791.34,492.17,793.04,493.03,794.74,493.9z M802.77,499.44
				c-2.27-1.55-4.57-3.14-6.88-4.74c-1.66-0.85-3.32-1.69-5.01-2.56c2.26,1.53,4.51,3.05,6.73,4.54
				C799.35,497.61,801.07,498.53,802.77,499.44z M810.71,504.84c-2.15-1.45-4.32-2.93-6.5-4.42c-1.65-0.87-3.33-1.78-5-2.68
				c2.1,1.41,4.2,2.81,6.26,4.18C807.22,502.89,808.99,503.89,810.71,504.84z M818.29,509.92c-2.02-1.35-4.03-2.68-6.07-4.06
				c-1.54-0.85-3.11-1.72-4.67-2.58c1.98,1.3,3.94,2.58,5.89,3.86C815.06,508.07,816.69,509.01,818.29,509.92z M825.33,514.61
				c-1.67-1.1-3.36-2.23-5.06-3.36c-1.36-0.77-2.72-1.53-4.1-2.32c1.71,1.11,3.4,2.19,5.09,3.28
				C822.62,513.01,823.98,513.82,825.33,514.61z M831.73,518.81c-1.19-0.78-2.39-1.57-3.59-2.35c-0.93-0.54-1.85-1.07-2.79-1.62
				c1.09,0.7,2.18,1.4,3.26,2.08C829.66,517.54,830.7,518.18,831.73,518.81z M701.37,422.95c-3.14-2.44-6.3-4.9-9.49-7.4
				c-1.43-0.25-2.85-0.5-4.29-0.76c3.15,2.44,6.27,4.84,9.37,7.22C698.44,422.33,699.91,422.64,701.37,422.95z M711.08,430.47
				c-3.1-2.39-6.21-4.79-9.35-7.24c-1.46-0.31-2.93-0.62-4.4-0.94c3.11,2.39,6.18,4.73,9.24,7.06
				C708.08,429.74,709.58,430.1,711.08,430.47z M720.63,437.82c-3.03-2.32-6.1-4.68-9.17-7.06c-1.49-0.36-2.99-0.73-4.5-1.11
				c3.04,2.32,6.08,4.63,9.07,6.89C717.58,436.99,719.11,437.4,720.63,437.82z M730.08,445.03c-2.99-2.27-6-4.56-9.03-6.88
				c-1.52-0.41-3.05-0.83-4.59-1.27c3,2.27,5.99,4.51,8.94,6.73C726.98,444.1,728.53,444.56,730.08,445.03z M739.47,452.12
				c-2.96-2.23-5.93-4.46-8.93-6.75c-1.55-0.47-3.09-0.93-4.66-1.42c2.97,2.22,5.89,4.39,8.81,6.57
				C736.3,451.07,737.88,451.59,739.47,452.12z M748.74,459.07c-2.9-2.17-5.83-4.37-8.78-6.59c-1.58-0.52-3.14-1.03-4.74-1.57
				c2.88,2.14,5.73,4.25,8.57,6.34C745.44,457.86,747.1,458.48,748.74,459.07z M757.78,465.8c-2.81-2.08-5.66-4.2-8.51-6.34
				c-1.62-0.58-3.28-1.2-4.93-1.81c2.82,2.08,5.64,4.15,8.42,6.18C754.44,464.5,756.12,465.16,757.78,465.8z M766.79,472.43
				c-2.81-2.06-5.6-4.1-8.45-6.21c-1.64-0.63-3.3-1.28-4.96-1.93c2.79,2.03,5.54,4.02,8.3,6
				C763.39,471.01,765.11,471.73,766.79,472.43z M775.62,478.86c-2.72-1.97-5.45-3.96-8.21-5.98c-1.67-0.68-3.36-1.39-5.05-2.1
				c2.72,1.96,5.42,3.9,8.1,5.81C772.19,477.36,773.91,478.12,775.62,478.86z M784.24,485.1c-2.6-1.87-5.25-3.79-7.9-5.72
				c-1.69-0.73-3.41-1.49-5.12-2.25c2.64,1.88,5.27,3.76,7.86,5.6C780.81,483.54,782.52,484.32,784.24,485.1z M792.87,491.27
				c-2.6-1.85-5.21-3.71-7.84-5.6c-1.68-0.76-3.35-1.52-5.05-2.31c2.55,1.8,5.09,3.58,7.6,5.34
				C789.35,489.57,791.12,490.43,792.87,491.27z M801.26,497.2c-2.49-1.75-4.98-3.5-7.5-5.3c-1.73-0.82-3.49-1.69-5.24-2.54
				c2.51,1.75,4.99,3.46,7.46,5.18C797.76,495.44,799.52,496.33,801.26,497.2z M809.44,502.94c-2.37-1.65-4.78-3.34-7.19-5.04
				c-1.69-0.84-3.39-1.69-5.11-2.56c2.41,1.66,4.8,3.31,7.18,4.93C806.04,501.18,807.73,502.05,809.44,502.94z M817.52,508.53
				c-2.28-1.57-4.58-3.17-6.89-4.77c-1.66-0.86-3.31-1.71-4.99-2.6c2.24,1.53,4.48,3.06,6.68,4.54
				C814.06,506.67,815.79,507.6,817.52,508.53z M825.48,513.97c-2.19-1.49-4.37-2.97-6.59-4.49c-1.64-0.88-3.31-1.79-4.97-2.7
				c2.16,1.45,4.3,2.88,6.44,4.3C822.08,512.06,823.79,513.03,825.48,513.97z M833.07,519.12c-1.96-1.32-3.93-2.65-5.92-4
				c-1.59-0.88-3.21-1.8-4.82-2.71c1.99,1.32,3.95,2.61,5.91,3.9C829.86,517.24,831.48,518.2,833.07,519.12z M840.2,523.88
				c-1.67-1.11-3.36-2.25-5.05-3.38c-1.36-0.78-2.73-1.57-4.11-2.36c1.6,1.05,3.19,2.09,4.76,3.11
				C837.27,522.13,838.75,523.03,840.2,523.88z M846.58,528.09c-1.23-0.81-2.45-1.6-3.68-2.42c-0.8-0.47-1.59-0.92-2.4-1.4
				c0.93,0.6,1.88,1.21,2.8,1.8C844.4,526.75,845.5,527.43,846.58,528.09z M1029.41,353.1c-0.88,0.39-1.8,0.79-2.75,1.22
				c-4.72,35.06-11.92,81.49-36.86,114.6c-31.73,42.12-92.15,62.67-212.66,10.81c2.68,1.94,5.35,3.88,7.98,5.77
				c119.02,54.16,178.95,37.7,209.79-2.46C1022.24,447.45,1026.77,393.25,1029.41,353.1z M1026.68,354.09
				c0.95-0.42,1.86-0.82,2.74-1.21c0.08-1.22,0.16-2.43,0.24-3.62c-0.81,0.44-1.65,0.9-2.51,1.37
				C1026.99,351.77,1026.84,352.93,1026.68,354.09z M587.62,386.72c-0.8-0.24-1.6-0.48-2.41-0.73c1.51,0.56,3,1.09,4.49,1.63
				C589.01,387.32,588.31,387.01,587.62,386.72z M593.16,388.4c-1.28-0.37-2.57-0.78-3.85-1.17c1.54,0.65,3.05,1.26,4.58,1.89
				c1.27,0.45,2.55,0.93,3.82,1.37C596.2,389.8,594.68,389.11,593.16,388.4z M598.35,389.88c-1.34-0.38-2.68-0.75-4.03-1.15
				c1.79,0.83,3.56,1.62,5.34,2.42c1.36,0.47,2.71,0.92,4.06,1.38C601.94,391.66,600.15,390.78,598.35,389.88z M603.72,391.4
				c-1.46-0.4-2.92-0.83-4.39-1.25c1.97,0.98,3.92,1.92,5.87,2.88c1.5,0.5,3.01,1.03,4.5,1.51
				C607.72,393.51,605.73,392.47,603.72,391.4z M608.84,392.77c-1.42-0.38-2.84-0.74-4.26-1.13c2.1,1.11,4.16,2.18,6.23,3.26
				c1.48,0.48,2.96,0.95,4.43,1.42C613.11,395.14,610.99,393.98,608.84,392.77z M614.11,394.17c-1.51-0.39-3.02-0.8-4.54-1.2
				c2.23,1.25,4.42,2.44,6.63,3.66c1.54,0.49,3.09,1,4.62,1.47C618.6,396.81,616.36,395.49,614.11,394.17z M619.16,395.44
				c-1.45-0.36-2.9-0.71-4.35-1.08c2.29,1.34,4.57,2.67,6.83,3.98c1.53,0.47,3.05,0.91,4.57,1.37
				C623.87,398.3,621.53,396.89,619.16,395.44z M624.3,396.7c-1.49-0.36-3-0.73-4.5-1.11c2.4,1.47,4.79,2.91,7.16,4.33
				c1.56,0.46,3.13,0.95,4.68,1.4C629.21,399.81,626.75,398.25,624.3,396.7z M629.3,397.88c-1.47-0.34-2.94-0.68-4.41-1.03
				c2.49,1.57,4.97,3.13,7.43,4.67c1.54,0.44,3.05,0.85,4.58,1.27C634.38,401.17,631.85,399.55,629.3,397.88z M634.28,399.02
				c-1.48-0.33-2.96-0.67-4.44-1.01c2.59,1.68,5.14,3.32,7.69,4.96c1.55,0.43,3.11,0.88,4.65,1.29
				C639.56,402.53,636.93,400.79,634.28,399.02z M639.27,400.12c-1.48-0.32-2.97-0.65-4.45-0.98c2.67,1.79,5.33,3.55,7.96,5.29
				c1.51,0.41,3,0.78,4.5,1.17C644.63,403.8,641.94,401.95,639.27,400.12z M644.15,401.14c-1.46-0.3-2.92-0.6-4.39-0.92
				c2.7,1.85,5.41,3.71,8.08,5.52c1.54,0.4,3.09,0.81,4.62,1.19C649.7,405.02,646.93,403.09,644.15,401.14z M649.04,402.14
				c-1.46-0.29-2.94-0.61-4.41-0.91c2.81,1.97,5.6,3.91,8.37,5.83c1.51,0.38,3.01,0.73,4.51,1.09
				C654.7,406.17,651.88,404.18,649.04,402.14z M653.81,403.05c-1.44-0.27-2.88-0.54-4.32-0.82c2.86,2.05,5.7,4.05,8.52,6.05
				c1.51,0.36,3.02,0.73,4.52,1.08C659.64,407.28,656.75,405.19,653.81,403.05z M658.62,403.97c-1.45-0.26-2.91-0.56-4.37-0.83
				c2.95,2.15,5.87,4.25,8.77,6.34c1.49,0.35,2.98,0.68,4.46,1.01C664.55,408.33,661.6,406.18,658.62,403.97z M663.34,404.79
				c-1.43-0.25-2.85-0.48-4.28-0.74c2.99,2.21,5.95,4.38,8.89,6.53c1.48,0.33,2.96,0.65,4.44,0.97
				C669.39,409.32,666.38,407.07,663.34,404.79z M668.07,405.6c-1.43-0.24-2.87-0.49-4.31-0.74c3.05,2.29,6.08,4.55,9.08,6.78
				c1.48,0.31,2.95,0.63,4.42,0.93C674.22,410.28,671.15,407.95,668.07,405.6z M672.72,406.35c-1.41-0.22-2.83-0.44-4.25-0.68
				c3.09,2.35,6.17,4.69,9.21,6.98c1.46,0.3,2.91,0.58,4.36,0.86C678.97,411.17,675.84,408.76,672.72,406.35z M677.36,407.07
				c-1.41-0.21-2.82-0.43-4.24-0.66c3.13,2.41,6.27,4.83,9.35,7.19c1.46,0.28,2.93,0.58,4.38,0.85
				C683.72,412.03,680.54,409.55,677.36,407.07z M681.96,407.75c-1.4-0.2-2.81-0.41-4.21-0.62c3.18,2.48,6.37,4.97,9.51,7.4
				c1.44,0.27,2.86,0.51,4.29,0.76C688.38,412.81,685.17,410.28,681.96,407.75z M997.88,366.74
				c-59.49,24.5-171.33,61.51-315.54,41.05c3.22,2.54,6.44,5.08,9.61,7.56C839.76,441.44,942.36,396.61,997.88,366.74z
				 M1001.82,365.11c-0.73,0.31-1.46,0.61-2.21,0.92c-55.1,29.84-158.17,75.81-307.33,49.59c3.2,2.51,6.36,4.97,9.51,7.42
				C856.63,455.46,951.28,400.37,1001.82,365.11z M1005.15,363.71c-0.82,0.35-1.64,0.69-2.48,1.05
				c-50.34,35.23-145.08,90.99-300.52,58.57c3.15,2.45,6.27,4.86,9.38,7.26C873.18,469.56,959.49,404.39,1005.15,363.71z
				 M1008.31,362.36c-0.85,0.37-1.72,0.74-2.61,1.11c-45.53,40.65-131.81,106.33-293.79,67.41c3.09,2.38,6.16,4.75,9.21,7.08
				C889.76,483.81,967.55,408.51,1008.31,362.36z M1011.4,361.03c-0.87,0.38-1.77,0.76-2.67,1.15
				c-40.68,46.12-118.38,121.83-287.19,76.1c3.04,2.33,6.06,4.63,9.06,6.91C906.46,498.21,975.56,412.68,1011.4,361.03z
				 M1014.46,359.7c-0.88,0.39-1.79,0.78-2.71,1.18c-35.79,51.62-104.77,137.49-280.69,84.65c3.02,2.29,5.99,4.53,8.97,6.77
				c151.8,50.06,219.21-7.07,255.44-60.68C1002.97,380.5,1009.15,369.53,1014.46,359.7z M1017.48,358.38
				c-0.89,0.39-1.8,0.79-2.73,1.2c-5.34,9.89-11.55,20.95-19.13,32.16c-36.21,53.6-103.58,110.72-255.11,60.93
				c2.97,2.23,5.91,4.44,8.84,6.62c137.67,49.15,202.73,7.62,238.02-42.9C1001.04,396.82,1010.25,375.9,1017.48,358.38z
				 M1020.48,357.05c-0.9,0.4-1.8,0.8-2.74,1.21c-7.25,17.57-16.48,38.58-30.21,58.24c-35.29,50.51-100.28,92.04-237.67,43.17
				c2.87,2.14,5.74,4.28,8.56,6.37c129.45,49.61,192.54,17.51,226.57-29.82C1003.28,410.79,1013.18,380.96,1020.48,357.05z
				 M1023.47,355.73c-0.89,0.4-1.8,0.8-2.75,1.22c-7.31,23.95-17.22,53.87-35.57,79.39c-34.02,47.31-97.03,79.43-226.16,30.13
				c2.86,2.11,5.68,4.18,8.5,6.24c124.21,50.7,185.81,25.19,218.62-19.33C1008.04,423.62,1017.13,385.38,1023.47,355.73z
				 M1024.19,355.41l-0.5,0.22c-6.34,29.69-15.43,68.03-37.42,97.86c-32.8,44.5-94.3,70.04-218.17,19.67
				c2.8,2.05,5.56,4.06,8.32,6.06c120.91,52.23,181.46,31.73,213.21-10.42c24.88-33.03,32.09-79.36,36.81-114.39
				C1025.71,354.73,1024.96,355.07,1024.19,355.41z M1023.74,355.39l0.37-0.16c0.81-0.36,1.6-0.71,2.36-1.05
				c0.16-1.16,0.31-2.3,0.46-3.43c-0.81,0.45-1.64,0.91-2.5,1.4C1024.2,353.22,1023.97,354.3,1023.74,355.39z M1020.79,356.7
				c0.94-0.41,1.84-0.81,2.72-1.21c0.23-1.09,0.46-2.16,0.68-3.22c-0.81,0.45-1.64,0.92-2.49,1.4
				C1021.41,354.67,1021.1,355.68,1020.79,356.7z M1017.84,358c0.93-0.41,1.83-0.81,2.71-1.2c0.31-1.01,0.61-2,0.91-2.98
				c-0.81,0.46-1.63,0.92-2.48,1.4C1018.61,356.14,1018.23,357.07,1017.84,358z M1014.9,359.29c0.91-0.4,1.81-0.79,2.69-1.18
				c0.38-0.92,0.75-1.83,1.12-2.73l-0.45,0.26l-2,1.14C1015.81,357.6,1015.36,358.44,1014.9,359.29z M1011.95,360.57
				c0.9-0.39,1.79-0.78,2.65-1.15c0.45-0.83,0.89-1.65,1.33-2.47c-0.79,0.45-1.6,0.91-2.43,1.37
				C1013,359.07,1012.48,359.81,1011.95,360.57z M1009.03,361.83c0.87-0.38,1.74-0.75,2.58-1.11c0.51-0.73,1.01-1.46,1.51-2.18
				c-0.77,0.44-1.56,0.88-2.36,1.33C1010.19,360.52,1009.61,361.18,1009.03,361.83z M1006.16,363.06c0.83-0.35,1.65-0.7,2.45-1.05
				c0.55-0.62,1.09-1.24,1.63-1.85c-0.74,0.42-1.49,0.84-2.26,1.26C1007.39,361.96,1006.78,362.51,1006.16,363.06z M1003.43,364.22
				c0.73-0.31,1.45-0.61,2.17-0.92c0.55-0.49,1.09-0.97,1.63-1.45c-0.67,0.37-1.34,0.75-2.03,1.13
				C1004.61,363.39,1004.03,363.8,1003.43,364.22z M1001.32,365.1c0.42-0.17,0.84-0.35,1.25-0.52c0.36-0.26,0.73-0.51,1.09-0.76
				C1002.89,364.24,1002.12,364.67,1001.32,365.1z M1.56,353.24c73.21-29.02,282.89-93.7,510.35,5.34
				c22.91,9.98,45.34,18.34,67.23,25.3c-21.71-8.28-44.14-18.03-67.32-29.5C263.56,231.53,70.51,308,1.56,344.68v-0.22
				c69.07-36.71,262.12-113.09,510.35,9.75c24.37,12.06,47.91,22.22,70.65,30.77c1.15,0.36,2.29,0.69,3.43,1.04
				c-23.65-10.07-48.35-21.98-74.17-36.02C243.96,204.33,66.35,290.45,1.56,334.99v-0.24c64.93-44.59,242.57-130.55,510.36,15.08
				c26.4,14.36,51.63,26.49,75.77,36.7c1.42,0.43,2.84,0.87,4.26,1.29c-25.32-11.79-51.99-25.75-80.12-42.2
				c-285.94-167.25-449.55-74-510.26-21.51v-0.26c60.86-52.56,224.53-145.59,510.36,21.59c28.58,16.71,55.64,30.86,81.31,42.76
				c1.41,0.41,2.81,0.79,4.21,1.2c-26.85-13.47-55.34-29.4-85.62-48.17C209.74,153.99,58.38,251.32,1.56,311.69v-0.29
				c56.97-60.43,208.43-157.49,510.36,29.67c30.62,18.98,59.4,35.06,86.5,48.62c1.5,0.43,3,0.86,4.5,1.28
				c-28.38-15.14-58.68-33.03-91.11-54.11C195.91,131.54,54.78,229.41,1.56,297.3v-0.31c53.38-67.93,194.63-165.5,510.36,39.71
				c32.72,21.27,63.28,39.3,91.87,54.52c1.46,0.4,2.92,0.78,4.38,1.17c-29.84-16.77-61.88-36.6-96.35-59.91
				C185.01,111.52,51.71,205.82,1.56,280.38v-0.36c50.32-74.59,183.77-168.52,510.37,52.3c34.71,23.47,66.97,43.42,96.98,60.27
				c1.53,0.41,3.06,0.82,4.58,1.21c-31.33-18.42-65.13-40.15-101.67-65.7C177.5,94.38,49.41,180.67,1.56,260.43v-0.39
				c48.02-79.76,176.28-165.66,510.37,67.9c36.78,25.71,70.77,47.56,102.26,66.05c1.48,0.38,2.95,0.75,4.42,1.11
				c-32.75-20.02-68.26-43.66-106.79-71.38C173.78,80.52,48.16,154.42,1.56,237.12v-0.42c46.78-82.66,172.58-156.16,510.37,86.87
				c38.73,27.87,74.41,51.6,107.31,71.69c1.52,0.38,3.03,0.75,4.54,1.12c-34.22-21.64-71.42-47.13-111.96-77.03
				C173.84,70.05,48.19,127.88,1.56,210.56v-0.5c46.82-82.58,172.68-139.96,510.37,109.12c40.73,30.04,78.1,55.63,112.44,77.34
				c1.49,0.36,2.98,0.71,4.46,1.06c-35.64-23.23-74.53-50.58-117.02-82.61C177.07,62.61,49.52,102.13,1.56,181.58v-0.49
				C49.71,101.78,177.48,62.68,511.93,314.8c42.66,32.16,81.7,59.61,117.44,82.89c1.49,0.34,2.97,0.68,4.45,1.01
				c-37.04-24.8-77.59-53.99-122.01-88.13C182.67,57.63,52.01,78.11,1.56,151.35v-0.43c50.61-73.12,181.43-93.3,510.37,159.5
				c44.59,34.27,85.27,63.54,122.43,88.41c1.5,0.33,3,0.67,4.49,1c-38.47-26.38-80.67-57.38-127.03-93.63
				C189.66,54.34,55.38,56.39,1.56,121.19v-0.41c53.97-64.66,188.39-66.46,510.37,185.27c46.52,36.37,88.84,67.45,127.41,93.88
				c1.47,0.32,2.94,0.62,4.41,0.92c-39.86-27.93-83.68-60.72-131.93-99.03C197.25,52.09,59.3,37.13,1.56,92.07v-0.4
				c57.89-54.8,195.96-39.62,510.37,210c48.4,38.42,92.34,71.29,132.29,99.28c1.48,0.31,2.97,0.63,4.44,0.92
				c-41.25-29.48-86.71-64.07-136.85-104.43C204.91,50.39,63.5,20.18,1.56,64.59v-0.37c62.07-44.28,203.59-13.89,510.37,233.07
				c50.27,40.47,95.84,75.13,137.18,104.67c1.45,0.29,2.89,0.55,4.33,0.83c-42.62-31.01-89.67-67.36-141.63-109.72
				C212.27,48.89,67.75,5.27,1.56,39.08v-0.37C67.88,5.03,212.5,48.83,511.93,292.91c52.1,42.47,99.25,78.9,141.95,109.96
				c1.46,0.28,2.92,0.57,4.37,0.83c-43.99-32.53-92.64-70.65-146.45-115.02C219.18,47.41,71.94-7.93,1.56,15.53v-0.35
				c70.5-23.33,217.85,32.16,510.37,273.35C565.87,333,614.63,371.2,658.69,403.78c1.44,0.26,2.87,0.5,4.3,0.75
				c-45.34-34.05-95.56-73.89-151.18-120.23C297.13,105.44,159.34,23.9,72.42,0h0.94c87.03,24.28,224.66,105.92,438.57,284.15
				c55.74,46.44,106.06,86.35,151.47,120.45c1.44,0.25,2.88,0.51,4.32,0.74c-46.7-35.55-98.49-77.11-155.92-125.42
				C326.7,124.21,197.65,38.82,108.79,0h0.59c88.89,38.98,217.83,124.39,402.55,279.77c57.55,48.41,109.43,90.04,156.2,125.64
				c1.43,0.24,2.84,0.46,4.26,0.69c-48.05-37.05-101.38-80.31-160.59-130.56C343.4,132.62,220.59,46.43,131.82,0h0.5
				c88.78,46.53,211.5,132.72,379.62,275.4c59.33,50.35,112.75,93.67,160.86,130.77c1.42,0.22,2.83,0.44,4.25,0.66
				c-49.38-38.53-104.25-83.48-165.23-135.65C355.62,137.53,237.87,51.36,149.81,0h0.38c88.07,51.42,205.71,137.51,361.74,271.02
				c61.09,52.27,116.05,97.28,165.5,135.86c1.41,0.21,2.82,0.43,4.23,0.63c-50.72-40.01-107.11-86.63-169.85-140.72
				C365.15,140.35,251.8,54.76,164.71,0h0.37c87.09,54.81,200.35,140.33,346.85,266.64c62.84,54.18,119.32,100.87,170.1,140.92
				c145.72,20.75,258.43-17.21,317.49-41.71c1.91-1.03,3.77-2.05,5.57-3.04c1.73-1.22,3.42-2.42,5.04-3.59
				c1.55-1.4,3.04-2.76,4.49-4.08l1.03-1.18c1-1.15,1.97-2.28,2.92-3.37c1.18-1.72,2.32-3.38,3.43-4.97c1-1.86,1.98-3.63,2.93-5.32
				c0.84-1.96,1.65-3.83,2.46-5.58c0.68-2.04,1.36-3.97,2.04-5.78c0.31-1.2,0.62-2.35,0.94-3.46v0.71c-0.1,0.35-0.2,0.71-0.3,1.08
				c0.1-0.25,0.2-0.5,0.3-0.74v1.55l-0.14,0.84l0.14-0.26v0.41l-0.24,0.46c-0.15,0.94-0.31,1.91-0.46,2.89
				c0.23-0.36,0.46-0.7,0.7-1.04v0.35c-0.25,0.38-0.51,0.76-0.77,1.16c-0.15,1-0.3,2.02-0.45,3.06c0.41-0.51,0.82-1,1.22-1.48v0.3
				c-0.42,0.5-0.84,1.02-1.27,1.55c-0.15,1.04-0.3,2.1-0.45,3.18c0.58-0.59,1.16-1.16,1.72-1.71v0.27
				c-0.58,0.56-1.17,1.15-1.77,1.76c-0.15,1.07-0.3,2.17-0.45,3.27c0.69-0.57,1.36-1.12,2.01-1.64c0.07-1.01,0.13-2,0.2-2.98v3.07
				l-0.01,0.01c-0.08,1.16-0.15,2.34-0.23,3.53l0.24-0.16v0.23l-0.26,0.17l-0.17,2.68l-0.06,0.92l0.49-0.27v0.22l-0.51,0.27
				c-0.08,1.2-0.16,2.42-0.24,3.65l0.74-0.33v0.21l-0.76,0.33c-2.63,40.18-7.15,94.48-34.55,130.14
				c-30.82,40.13-90.6,56.63-209.16,2.91c2.67,1.92,5.32,3.81,7.95,5.68c118.04,56.27,177.57,43.16,207.64,4.67
				c18.62-23.83,25.94-57.39,28.87-90.25v2.13c-3.06,32.21-10.47,64.88-28.72,88.24c-30.04,38.45-89.42,51.62-206.96-4.2
				c2.58,1.83,5.11,3.61,7.65,5.4c117.88,58.66,177.34,48.51,206.77,11.42c10.45-13.17,17.11-29.75,21.26-47.84v0.87
				c-4.17,17.79-10.8,34.09-21.11,47.09c-29.38,37.03-88.65,47.27-205.94-10.85c2.49,1.75,4.96,3.48,7.4,5.18
				c118.32,61.23,177.91,53.69,206.79,17.79c5.24-6.51,9.46-13.96,12.85-22.1v0.51c-3.36,7.98-7.54,15.3-12.7,21.71
				c-28.82,35.83-88.16,43.48-205.76-17.09c2.37,1.65,4.75,3.3,7.08,4.9c119.26,63.99,179.17,58.82,207.59,23.93
				c1.33-1.64,2.59-3.35,3.79-5.12v0.35c-1.15,1.69-2.36,3.32-3.64,4.89c-28.35,34.8-87.94,40.11-206.33-23.09
				c2.3,1.58,4.58,3.12,6.85,4.67c112.82,62.56,172.91,63.97,203.12,36v0.26c-30.16,27.74-89.88,26.4-201.58-35.22
				c2.17,1.47,4.32,2.91,6.46,4.35c102.86,58.83,162.33,67.53,195.12,49.01v0.22c-32.63,18.34-91.57,9.83-193.11-47.88
				c1.93,1.29,3.85,2.57,5.75,3.83c94.43,55.58,152.74,69.61,187.36,58.87v0.19c-34.32,10.59-91.82-3.07-184.51-57.19
				c1.63,1.07,3.26,2.15,4.87,3.2c87.01,52.59,143.78,70.51,179.63,66.2v0.17c-35.29,4.22-90.78-13.03-175.3-63.56
				c1.16,0.75,2.32,1.5,3.48,2.24c55.05,34.09,98.17,54.54,131.62,64.34h-0.6c-31.62-9.35-71.8-28.14-122.45-58.88
				c43.66,27.6,79.89,46.75,109.81,58.88h-0.44c-31.8-12.93-70.71-33.76-118.04-64.19c-4.98-3.08-10.05-6.27-15.22-9.57
				c-4.85-2.98-9.77-6.04-14.8-9.23c-4.58-2.79-9.24-5.68-13.98-8.66c-4.91-2.96-9.93-6.04-15.02-9.22
				c-4.89-2.92-9.87-5.95-14.93-9.07c-4.86-2.87-9.8-5.84-14.82-8.9c-4.82-2.81-9.71-5.71-14.7-8.72c-4.77-2.75-9.6-5.57-14.54-8.51
				c-4.7-2.67-9.45-5.39-14.3-8.24c-4.62-2.57-9.28-5.21-14.04-7.96c-4.49-2.46-9.04-4.98-13.67-7.61
				c-4.58-2.45-9.23-4.99-13.95-7.61c-4.52-2.35-9.12-4.81-13.76-7.32c-4.45-2.25-8.95-4.57-13.51-6.98
				c-4.43-2.17-8.93-4.43-13.49-6.75c-4.22-1.98-8.48-4.03-12.8-6.15c-4.14-1.85-8.32-3.78-12.54-5.75
				c-4.18-1.76-8.39-3.58-12.65-5.47c-3.94-1.54-7.91-3.15-11.9-4.79c-3.76-1.34-7.53-2.72-11.33-4.15
				c-22.98-7.17-46.55-15.9-70.66-26.4c-227.47-99.05-437.16-34.31-510.27-5.31V353.24z"/>
		</g>
	</g>
</g>
<g>
	<g>
		<g>
			<g>
				<path class="st16" d="M222.74,248c4.72,2.37,8.46,5.34,11.17,8.9c3.38,4.45,4.6,10.61,3.65,18.48l-0.04,0.34
					c-0.65,5.4-2.26,10.13-4.83,14.18c-2.57,4.05-5.96,7.43-10.14,10.13c-4.21,2.7-9.12,4.73-14.71,6.08
					c-5.62,1.35-11.75,2.03-18.36,2.03h-56.12l4.26-35.38l38.22,23.71l43.92-23.71L222.74,248L222.74,248z M147.58,193.02h54.77
					c13.59,0,23.44,3.49,29.57,10.47c4.72,5.4,6.62,12.1,5.66,20.09l-0.04,0.34c-0.41,3.38-1.19,6.36-2.34,8.95
					c-1.16,2.59-2.53,4.92-4.19,7.01c-1.66,2.08-3.48,3.91-5.53,5.49c-0.73,0.57-1.49,1.12-2.25,1.63l2.24-18.58l-36.16-22.43
					l-2.06-1.28l-43.92,23.71L147.58,193.02L147.58,193.02z"/>
				<polygon class="st16" points="115.01,238.32 143.87,238.32 143.51,241.36 114.56,241.36 115.01,238.32 				"/>
			</g>
			<g>
				<g>
					<polygon class="st17" points="156.27,227.9 182.16,243.96 211.9,227.9 201.01,221.14 186.02,211.84 156.27,227.9 					"/>
					<polygon class="st17" points="172.95,283.72 176.81,251.6 150.95,235.55 147.08,267.67 172.95,283.72 					"/>
					<polygon class="st17" points="185.66,251.6 181.8,283.72 211.52,267.67 215.39,235.55 185.66,251.6 					"/>
				</g>
				<g>
					<path class="st17" d="M216.7,304.81c-9.63,6.28-21.98,8.25-33.3,8.25h-56.12l5.35-43.33l3.21,1.99l-4.77,38.49h57.26
						C197.85,310.21,207.98,308.82,216.7,304.81L216.7,304.81z"/>
					<polygon class="st17" points="141.5,195.95 145.51,194.29 141.32,229.13 137.25,231.33 141.5,195.95 					"/>
					<polygon class="st17" points="97.07,249.73 132.33,249.73 131.88,252.77 96.63,252.77 97.07,249.73 					"/>
					<polygon class="st17" points="111.64,261.13 141.13,261.13 140.76,264.17 111.19,264.17 111.64,261.13 					"/>
				</g>
			</g>
		</g>
		<g>
			<path class="st17" d="M274.75,273.77c-4.53-4.88-6.8-10.82-6.8-17.79c0-6.97,2.27-12.92,6.8-17.85
				c3.64-3.95,7.96-6.29,12.94-7.07v-15.38c-10.09,0.74-18.72,4.54-25.87,11.42c-8.01,7.72-12.01,17.33-12.01,28.81
				c0,11.49,4,21.09,12.01,28.81c7.14,6.89,15.77,10.68,25.87,11.43v-15.37C282.71,280.02,278.39,277.7,274.75,273.77z"/>
			<path class="st17" d="M333.01,255.93c0-11.49-4.01-21.09-12.01-28.81c-7.12-6.86-15.71-10.66-25.75-11.42v15.37
				c4.98,0.78,9.3,3.12,12.94,7.07c4.53,4.92,6.8,10.87,6.8,17.85c0,6.98-2.27,12.91-6.8,17.79c-3.64,3.92-7.96,6.25-12.94,7.02
				v15.37c10.04-0.76,18.63-4.56,25.75-11.42C329,277.02,333.01,267.41,333.01,255.93z"/>
			<polygon class="st17" points="385.61,276.56 398.07,295.54 419.6,295.54 396.46,260.49 			"/>
			<polygon class="st17" points="396.25,217.32 381.18,240.48 366.1,217.32 344.91,217.32 369.73,255.48 343.1,295.54 
				363.71,295.54 416.47,217.32 			"/>
			<path class="st17" d="M528.58,224.31c-5.55-4.66-14.41-6.99-26.58-6.99h-28v15.04h17.68v-0.05h10.09
				c5.82,0,10.11,0.95,12.86,2.85c2.76,1.9,4.14,5.11,4.14,9.62c0,4.51-1.06,7.94-3.17,10.29c-2.12,2.35-6.12,3.52-12.01,3.52h-11.9
				H474v36.93h17.68v-21.82h10.54c11.71,0,20.42-2.24,26.12-6.71c5.7-4.48,8.56-11.54,8.56-21.2
				C536.91,236.14,534.13,228.98,528.58,224.31z"/>
			<polygon class="st17" points="575.45,263.31 581.55,249.41 572.27,227.69 542.58,295.54 561.39,295.54 568.76,278.64 
				594.05,278.64 587.49,263.31 			"/>
			<polygon class="st17" points="628.15,295.54 593.92,217.32 576.8,217.32 576.42,218.2 609.47,295.54 			"/>
			<path class="st17" d="M680.51,280.1c-6.35,0-11.75-2.2-16.21-6.6c-4.46-4.4-6.69-10.24-6.69-17.51c0-7.27,2.36-13.05,7.08-17.34
				c4.72-4.29,10.41-6.43,17.06-6.43c8.31,0,15.26,3.43,20.86,10.29l10.99-12.31c-8.77-9.77-19.65-14.66-32.64-14.66
				c-11.64,0-21.48,3.88-29.52,11.64c-8.05,7.76-12.07,17.44-12.07,29.04c0,11.6,3.95,21.2,11.84,28.81
				c7.89,7.61,17.95,11.41,30.15,11.41s22.8-5,31.79-14.99l-11.33-11.53C696.3,276.7,689.2,280.1,680.51,280.1z"/>
			<polygon class="st17" points="802.33,217.37 802.88,217.87 803.37,217.32 781.5,217.32 751.58,249.44 751.58,217.32 
				733.89,217.32 733.89,295.54 751.58,295.54 751.58,273.38 752.65,271.78 753.59,270.7 			"/>
			<path class="st17" d="M775.81,257.34l-12,13.04l18.93,25.16h20.63c-3.63-5-9.11-12.59-16.43-22.77
				C782.31,266.33,778.6,261.2,775.81,257.34z"/>
		</g>
	</g>
	<g>
		<path class="st16" d="M313.96,335.83L313.96,335.83c0,1.85,1.5,3.35,3.35,3.35h99.22c1.85,0,3.35-1.5,3.35-3.35l0,0
			c0-1.85-1.5-3.35-3.35-3.35h-99.22C315.46,332.48,313.96,333.98,313.96,335.83z"/>
		<g>
			<path class="st17" d="M434.31,327.7c-0.76,2.71-1.14,5.53-1.14,8.46c0,2.93,0.38,5.75,1.14,8.46c0.76,2.71,1.82,5.13,3.18,7.26
				h-4.28c-1.45-2.08-2.56-4.47-3.32-7.17s-1.14-5.55-1.14-8.55s0.38-5.85,1.14-8.55s1.87-5.09,3.32-7.17h4.28
				C436.13,322.57,435.07,324.99,434.31,327.7z"/>
			<path class="st17" d="M461.07,324.25c1.75,1.52,2.63,3.68,2.63,6.46c0,2.9-0.88,5.16-2.63,6.77c-1.75,1.61-4.23,2.41-7.42,2.41
				h-5.55v7.48h-4.86v-25.41h10.42C456.84,321.97,459.31,322.73,461.07,324.25z M457.62,334.42c0.98-0.8,1.47-1.98,1.47-3.56
				c0-1.55-0.49-2.71-1.47-3.49c-0.98-0.77-2.39-1.16-4.23-1.16h-5.3v9.4h5.3C455.23,335.62,456.64,335.22,457.62,334.42z"/>
			<path class="st17" d="M466.86,321.97h5.23l7.48,20l7.55-20h5.01l-10.16,25.41h-5.05L466.86,321.97z"/>
			<path class="st17" d="M494.7,321.97h20.73v4.32h-7.91v21.09h-4.9v-21.09h-7.91V321.97z"/>
			<path class="st17" d="M522.65,320.44c1.45,2.08,2.56,4.47,3.32,7.17c0.76,2.7,1.14,5.55,1.14,8.55s-0.38,5.85-1.14,8.55
				c-0.76,2.7-1.87,5.09-3.32,7.17h-4.28c1.36-2.13,2.41-4.55,3.18-7.26c0.76-2.71,1.14-5.53,1.14-8.46c0-2.93-0.38-5.75-1.14-8.46
				c-0.76-2.71-1.82-5.13-3.18-7.26H522.65z"/>
			<path class="st17" d="M545.92,321.97h4.86v21.02h10.96v4.39h-15.83V321.97z"/>
			<path class="st17" d="M564.9,321.97h20.73v4.32h-7.91v21.09h-4.9v-21.09h-7.91V321.97z"/>
			<path class="st17" d="M608.65,323.58c2.01,1.08,3.58,2.58,4.72,4.52s1.71,4.13,1.71,6.57s-0.58,4.63-1.72,6.55
				s-2.74,3.43-4.77,4.52c-2.03,1.09-4.34,1.63-6.93,1.63h-10.38v-25.41h10.56C604.36,321.97,606.64,322.5,608.65,323.58z
				 M606.12,342.02c1.25-0.71,2.22-1.71,2.92-2.98c0.7-1.27,1.05-2.72,1.05-4.34c0-1.62-0.36-3.08-1.09-4.37
				c-0.73-1.29-1.72-2.3-3-3.01s-2.69-1.07-4.27-1.07h-5.63v16.84h5.81C603.48,343.09,604.88,342.74,606.12,342.02z"/>
		</g>
		<g>
			<g>
				<path class="st17" d="M621.54,338.89c3.93,0,3.94-6.11,0-6.11C617.61,332.77,617.6,338.89,621.54,338.89L621.54,338.89z"/>
			</g>
		</g>
		<path class="st16" d="M633.3,335.83L633.3,335.83c0,1.85,1.5,3.35,3.35,3.35h99.22c1.85,0,3.35-1.5,3.35-3.35l0,0
			c0-1.85-1.5-3.35-3.35-3.35h-99.22C634.81,332.48,633.3,333.98,633.3,335.83z"/>
	</g>
</g>
</svg>
